<?xml version="1.0" encoding="UTF-8" standalone="no"?>
<!-- Created with Inkscape (http://www.inkscape.org/) -->

<svg
   xmlns:dc="http://purl.org/dc/elements/1.1/"
   xmlns:cc="http://creativecommons.org/ns#"
   xmlns:rdf="http://www.w3.org/1999/02/22-rdf-syntax-ns#"
   xmlns:svg="http://www.w3.org/2000/svg"
   xmlns="http://www.w3.org/2000/svg"
   xmlns:xlink="http://www.w3.org/1999/xlink"
   xmlns:sodipodi="http://sodipodi.sourceforge.net/DTD/sodipodi-0.dtd"
   xmlns:inkscape="http://www.inkscape.org/namespaces/inkscape"
   width="210mm"
   height="297mm"
   viewBox="0 0 744.09448819 1052.3622047"
   id="svg21028"
   version="1.1"
   inkscape:version="0.91 r13725"
   sodipodi:docname="icon.svg">
  <defs
     id="defs21030" />
  <sodipodi:namedview
     id="base"
     pagecolor="#ffffff"
     bordercolor="#666666"
     borderopacity="1.0"
     inkscape:pageopacity="0.0"
     inkscape:pageshadow="2"
     inkscape:zoom="0.35"
     inkscape:cx="-275"
     inkscape:cy="520"
     inkscape:document-units="px"
     inkscape:current-layer="layer1"
     showgrid="false"
     inkscape:window-width="1855"
     inkscape:window-height="1056"
     inkscape:window-x="1985"
     inkscape:window-y="24"
     inkscape:window-maximized="1" />
  <metadata
     id="metadata21033">
    <rdf:RDF>
      <cc:Work
         rdf:about="">
        <dc:format>image/svg+xml</dc:format>
        <dc:type
           rdf:resource="http://purl.org/dc/dcmitype/StillImage" />
        <dc:title></dc:title>
      </cc:Work>
    </rdf:RDF>
  </metadata>
  <g
     inkscape:label="Capa 1"
     inkscape:groupmode="layer"
     id="layer1">
    <rect
       style="fill:#000000;fill-opacity:1;stroke:none;stroke-width:3;stroke-miterlimit:4;stroke-dasharray:none;stroke-opacity:1"
       id="rect22157"
       width="238"
       height="268"
       x="244.71066"
       y="366.30234" />
    <g
       id="g15020"
       transform="matrix(1.2474687,0,0,-1.2462023,-138.74196,994.42944)">
      <text
         id="text15022"
         style="font-variant:normal;font-weight:normal;font-size:29px;font-family:Bebas;-inkscape-font-specification:Bebas;writing-mode:lr-tb;fill:#cba86d;fill-opacity:1;fill-rule:nonzero;stroke:none"
         transform="matrix(1,0,0,-1,305.34,385.59)">
        <tspan
           id="tspan15024"
           sodipodi:role="line"
           y="0"
           x="0 22.767593 41.558575 59.897984 77.144592 89.098701 107.29449 123.75926 140.46928 157.71637 175.56104">MANUFACTURE</tspan>
      </text>
      <text
         id="text15026"
         style="font-variant:normal;font-weight:bold;font-size:23.99999809px;font-family:Merriweather;-inkscape-font-specification:Merriweather-Bold;writing-mode:lr-tb;fill:#cba86d;fill-opacity:1;fill-rule:nonzero;stroke:none"
         transform="matrix(0.817751,0.575572,0.575572,-0.817751,341.567,464.117)">
        <tspan
           id="tspan15028"
           y="0"
           x="0">P</tspan>
      </text>
      <text
         id="text15030"
         style="font-variant:normal;font-weight:bold;font-size:23.99999809px;font-family:Merriweather;-inkscape-font-specification:Merriweather-Bold;writing-mode:lr-tb;fill:#cba86d;fill-opacity:1;fill-rule:nonzero;stroke:none"
         transform="matrix(0.901642,0.432483,0.432483,-0.901642,354.809,473.497)">
        <tspan
           id="tspan15032"
           y="0"
           x="0">R</tspan>
      </text>
      <text
         id="text15034"
         style="font-variant:normal;font-weight:bold;font-size:23.99999428px;font-family:Merriweather;-inkscape-font-specification:Merriweather-Bold;writing-mode:lr-tb;fill:#cba86d;fill-opacity:1;fill-rule:nonzero;stroke:none"
         transform="matrix(0.966739,0.255764,0.255764,-0.966739,370.878,481.131)">
        <tspan
           id="tspan15036"
           y="0"
           x="0">E</tspan>
      </text>
      <text
         id="text15038"
         style="font-variant:normal;font-weight:bold;font-size:24.00000763px;font-family:Merriweather;-inkscape-font-specification:Merriweather-Bold;writing-mode:lr-tb;fill:#cba86d;fill-opacity:1;fill-rule:nonzero;stroke:none"
         transform="matrix(0.999856,0.0169878,0.0169878,-0.999856,386.742,485.778)">
        <tspan
           id="tspan15040"
           y="0"
           x="0">M</tspan>
      </text>
      <text
         id="text15042"
         style="font-variant:normal;font-weight:bold;font-size:23.99999428px;font-family:Merriweather;-inkscape-font-specification:Merriweather-Bold;writing-mode:lr-tb;fill:#cba86d;fill-opacity:1;fill-rule:nonzero;stroke:none"
         transform="matrix(0.982408,-0.186746,-0.186746,-0.982408,410.77,485.42)">
        <tspan
           id="tspan15044"
           y="0"
           x="0">I</tspan>
      </text>
      <text
         id="text15046"
         style="font-variant:normal;font-weight:bold;font-size:23.99999046px;font-family:Merriweather;-inkscape-font-specification:Merriweather-Bold;writing-mode:lr-tb;fill:#cba86d;fill-opacity:1;fill-rule:nonzero;stroke:none"
         transform="matrix(0.937428,-0.348178,-0.348178,-0.937428,420.715,483.858)">
        <tspan
           id="tspan15048"
           y="0"
           x="0">U</tspan>
      </text>
      <text
         id="text15050"
         style="font-variant:normal;font-weight:bold;font-size:23.99999619px;font-family:Merriweather;-inkscape-font-specification:Merriweather-Bold;writing-mode:lr-tb;fill:#cba86d;fill-opacity:1;fill-rule:nonzero;stroke:none"
         transform="matrix(0.839317,-0.543642,-0.543642,-0.839317,438.669,477.374)">
        <tspan
           id="tspan15052"
           y="0"
           x="0">M</tspan>
      </text>
      <text
         id="text15054"
         style="font-variant:normal;font-weight:bold;font-size:24px;font-family:Merriweather;-inkscape-font-specification:Merriweather-Bold;writing-mode:lr-tb;fill:#cba86d;fill-opacity:1;fill-rule:nonzero;stroke:none"
         transform="matrix(0.770399,-0.637562,-0.637562,-0.770399,335.021,318.021)">
        <tspan
           id="tspan15056"
           y="0"
           x="0">E</tspan>
      </text>
      <text
         id="text15058"
         style="font-variant:normal;font-weight:bold;font-size:23.99999619px;font-family:Merriweather;-inkscape-font-specification:Merriweather-Bold;writing-mode:lr-tb;fill:#cba86d;fill-opacity:1;fill-rule:nonzero;stroke:none"
         transform="matrix(0.869871,-0.493279,-0.493279,-0.869871,350.081,305.956)">
        <tspan
           id="tspan15060"
           y="0"
           x="0">S</tspan>
      </text>
      <text
         id="text15062"
         style="font-variant:normal;font-weight:bold;font-size:24.00000381px;font-family:Merriweather;-inkscape-font-specification:Merriweather-Bold;writing-mode:lr-tb;fill:#cba86d;fill-opacity:1;fill-rule:nonzero;stroke:none"
         transform="matrix(0.950204,-0.311629,-0.311629,-0.950204,366.148,297.116)">
        <tspan
           id="tspan15064"
           y="0"
           x="0">T</tspan>
      </text>
      <text
         id="text15066"
         style="font-variant:normal;font-weight:bold;font-size:24.00000763px;font-family:Merriweather;-inkscape-font-specification:Merriweather-Bold;writing-mode:lr-tb;fill:#cba86d;fill-opacity:1;fill-rule:nonzero;stroke:none"
         transform="matrix(0.991152,-0.132734,-0.132734,-0.991152,384.645,291.687)">
        <tspan
           id="tspan15068"
           y="0"
           x="0">.</tspan>
      </text>
      <text
         id="text15070"
         style="font-variant:normal;font-weight:bold;font-size:24.00000191px;font-family:Merriweather;-inkscape-font-specification:Merriweather-Bold;writing-mode:lr-tb;fill:#cba86d;fill-opacity:1;fill-rule:nonzero;stroke:none"
         transform="matrix(0.991433,0.130617,0.130617,-0.991433,405.134,290.331)">
        <tspan
           id="tspan15072"
           y="0"
           x="0">1</tspan>
      </text>
      <text
         id="text15074"
         style="font-variant:normal;font-weight:bold;font-size:23.99999237px;font-family:Merriweather;-inkscape-font-specification:Merriweather-Bold;writing-mode:lr-tb;fill:#cba86d;fill-opacity:1;fill-rule:nonzero;stroke:none"
         transform="matrix(0.947713,0.319123,0.319123,-0.947713,419.64,292.396)">
        <tspan
           id="tspan15076"
           y="0"
           x="0">9</tspan>
      </text>
      <text
         id="text15078"
         style="font-variant:normal;font-weight:bold;font-size:24.00001526px;font-family:Merriweather;-inkscape-font-specification:Merriweather-Bold;writing-mode:lr-tb;fill:#cba86d;fill-opacity:1;fill-rule:nonzero;stroke:none"
         transform="matrix(0.868042,0.496492,0.496492,-0.868042,437.087,298.65)">
        <tspan
           id="tspan15080"
           y="0"
           x="0">6</tspan>
      </text>
      <text
         id="text15082"
         style="font-variant:normal;font-weight:bold;font-size:23.99999809px;font-family:Merriweather;-inkscape-font-specification:Merriweather-Bold;writing-mode:lr-tb;fill:#cba86d;fill-opacity:1;fill-rule:nonzero;stroke:none"
         transform="matrix(0.770182,0.637824,0.637824,-0.770182,452.909,308.03)">
        <tspan
           id="tspan15084"
           y="0"
           x="0">9</tspan>
      </text>
    </g>
    <path
       style="fill:none;fill-opacity:1;stroke:#ff0000;stroke-width:2.97710824;stroke-miterlimit:4;stroke-dasharray:none;stroke-opacity:1"
       d="M 363.71067,632.81378 A 117.51144,132.51144 0 0 0 481.2221,500.30234 117.51144,132.51144 0 0 0 363.71067,367.79089 117.51144,132.51144 0 0 0 246.19923,500.30234 117.51144,132.51144 0 0 0 363.71067,632.81378 Z"
       id="path22159"
       inkscape:connector-curvature="0" />
    <path
       inkscape:connector-curvature="0"
       id="path15018"
       style="fill:#cba86d;fill-opacity:1;fill-rule:nonzero;stroke:none"
       d="m 253.06172,442.50503 c 2.34236,-0.99968 5.19388,-1.15654 7.57618,-0.16309 -1.27039,0.0349 -2.58196,0.31373 -3.8848,0.85153 -4.48382,1.84249 -6.28708,6.79606 -6.10737,11.30145 0.1173,2.89071 1.06074,5.25981 2.54952,7.18322 -0.453,-0.38468 -0.89352,-0.78804 -1.30783,-1.22625 -4.58739,-4.82409 -6.51545,-14.66399 1.1743,-17.94686 z m 82.51314,-15.80683 c 6.48175,-0.35978 12.61283,2.56081 15.27717,8.74312 2.36358,5.48888 1.49751,11.91021 -3.01625,16.09192 -2.4447,2.26452 -5.64938,4.2427 -9.09616,4.38961 -1.44636,0.0598 -2.9551,0.12075 -4.35029,-0.37473 -2.20135,-0.78804 -6.16353,-3.56671 -3.91101,-6.68401 2.93014,-4.05348 9.71513,-2.96915 13.97931,-4.61494 7.4177,-2.86208 6.1211,-13.28834 -0.97713,-15.72466 -9.77129,-3.35384 -19.62495,3.79951 -26.02433,10.5383 -1.41391,1.48768 -2.79786,2.98533 -4.17433,4.46804 -0.16098,-0.20915 -0.32197,-0.41705 -0.4842,-0.63118 5.99007,-7.64509 13.01217,-15.66615 22.77722,-16.20147 z m 7.81829,-8.82404 c 0.0537,5.2623 8.68185,10.33165 10.85325,14.14361 l 0.11855,0.21164 c 5.65562,10.23703 1.20924,24.45658 -10.44018,27.85522 -3.26958,0.95362 -6.31328,1.03827 -9.15981,0.49673 -0.41182,-0.0858 -0.86107,-0.16558 -1.24294,-0.28011 -2.8041,-0.73202 -5.41103,-2.06409 -7.83575,-3.7908 -0.23711,-0.1967 -0.69011,-0.48801 -0.93096,-0.68595 -3.62773,-2.7127 -6.5404,-6.03665 -9.41938,-9.64818 6.44681,-7.38615 13.63114,-15.0412 23.49229,-15.22794 2.08779,-0.0411 4.29662,0.43821 5.81286,1.87237 1.84693,1.74538 2.17389,5.01581 0.39434,6.83215 -1.06323,1.08682 -2.61441,1.51508 -4.08697,1.90225 -3.91476,1.02333 -8.52087,1.14284 -11.86033,3.68125 -3.71758,2.82972 -2.70551,8.43188 0.5129,11.30642 2.79037,2.49234 6.8474,3.19697 10.55,2.62804 5.47467,-0.84406 10.47139,-4.34977 13.1145,-9.20623 0.19593,-0.35979 0.38062,-0.72704 0.54909,-1.10301 2.11524,-4.65229 2.15518,-10.21711 0.0524,-14.8806 -2.27124,-5.04071 -6.98966,-8.91243 -12.38446,-10.15985 -1.58238,-0.36476 -3.20344,-0.51042 -4.82201,-0.46684 1.7783,-2.39026 4.07325,-4.23275 6.73259,-5.48017 z m 29.6633,14.35525 0.11855,-0.21164 c 2.1714,-3.81196 10.79959,-8.88131 10.85325,-14.14361 2.65934,1.24742 4.95428,3.08991 6.73383,5.48017 -1.62106,-0.0435 -3.24087,0.10208 -4.822,0.46684 -5.39605,1.24742 -10.11448,5.11914 -12.38571,10.15985 -2.10151,4.66349 -2.06283,10.22831 0.0524,14.8806 0.16847,0.37597 0.35191,0.74322 0.54908,1.10301 2.64437,4.85646 7.64108,8.36217 13.1145,9.20623 3.70261,0.56893 7.75963,-0.1357 10.55,-2.62804 3.21842,-2.87454 4.23049,-8.4767 0.51166,-11.30642 -3.33822,-2.53841 -7.94433,-2.65792 -11.86033,-3.68125 -1.47131,-0.38717 -3.02249,-0.81543 -4.08573,-1.90225 -1.78079,-1.81634 -1.45259,-5.08677 0.39435,-6.83215 1.51624,-1.43416 3.72632,-1.91345 5.81286,-1.87237 9.86114,0.18674 17.04548,7.84179 23.49228,15.22794 -2.87772,3.61153 -5.79289,6.93548 -9.41937,9.64818 -0.24085,0.19794 -0.6951,0.48925 -0.93221,0.68595 -2.42472,1.72671 -5.0304,3.05878 -7.8345,3.7908 -0.38187,0.11453 -0.83112,0.19421 -1.24294,0.28011 -2.84653,0.54154 -5.89023,0.45689 -9.15856,-0.49673 -11.64943,-3.39864 -16.09705,-17.61819 -10.44143,-27.85522 z m 41.56731,10.67026 c -0.16224,0.21413 -0.32322,0.42203 -0.48545,0.63118 -1.37647,-1.48271 -2.75917,-2.98036 -4.17308,-4.46804 -6.39814,-6.73879 -16.25304,-13.89214 -26.02309,-10.5383 -7.10072,2.43632 -8.39607,12.86258 -0.97837,15.72466 4.26417,1.64579 11.04917,0.56146 13.97931,4.61494 2.25251,3.1173 -1.70966,5.89597 -3.91101,6.68401 -1.39519,0.49548 -2.90394,0.43448 -4.35029,0.37473 -3.44678,-0.14691 -6.65147,-2.12509 -9.09741,-4.38961 -4.51251,-4.18171 -5.37983,-10.60304 -3.015,-16.09192 2.66433,-6.18231 8.79666,-9.1029 15.27716,-8.74312 9.76506,0.53532 16.78716,8.55638 22.77723,16.20147 z m 56.04454,0.2938 c -1.30159,-0.5378 -2.61441,-0.81667 -3.88481,-0.85153 2.3823,-0.99345 5.23507,-0.83659 7.57619,0.16309 7.68974,3.28287 5.76044,13.12277 1.1743,17.94686 -0.41556,0.43821 -0.85608,0.84157 -1.30783,1.22625 1.48878,-1.92341 2.43346,-4.29251 2.54952,-7.18322 0.18095,-4.50539 -1.6248,-9.45896 -6.10737,-11.30145 z m -220.79005,19.94995 c 5.30121,5.15524 13.11325,6.95416 20.51348,6.84958 16.3978,-0.2328 31.98569,-8.88379 42.78029,-21.19985 5.4884,5.4727 10.38528,11.53549 14.58082,18.04894 1.1768,1.8288 2.35359,3.75221 4.16184,4.96477 1.8095,1.21131 4.46385,1.48146 6.05122,-0.008 1.58737,-1.49017 0.92971,-4.81911 -1.2367,-5.04195 7.76587,1.04076 15.78132,0.16558 23.13787,-2.52969 2.40102,-0.88016 3.99837,-3.03139 2.24004,-5.46523 -0.77996,-1.07935 -1.94428,-1.80389 -3.07865,-2.50479 0.50666,0.31372 3.32199,-1.84996 3.73132,-2.17613 0.30948,-0.24525 0.64143,-0.52287 0.95092,-0.82414 0.31198,0.30127 0.64143,0.57889 0.95217,0.82414 0.40932,0.32617 3.2234,2.48985 3.73131,2.17613 -1.13562,0.7009 -2.29993,1.42544 -3.07989,2.50479 -1.75709,2.43384 -0.16223,4.58507 2.24128,5.46523 7.3553,2.69527 15.37076,3.57045 23.13663,2.52969 -2.16641,0.22284 -2.82407,3.55178 -1.2367,5.04195 1.58612,1.48894 4.24171,1.21879 6.05121,0.008 1.80825,-1.21256 2.98505,-3.13597 4.1631,-4.96477 4.19429,-6.51345 9.09117,-12.57624 14.57957,-18.04894 10.79459,12.31606 26.38249,20.96705 42.77904,21.19985 7.40273,0.10458 15.21227,-1.69434 20.51348,-6.84958 5.30246,-5.15151 7.12319,-14.22329 2.60693,-20.07693 -4.28664,-5.54864 -13.61243,-6.16363 -18.59292,-1.22252 -2.9501,2.9318 -4.23173,7.69863 -2.38354,11.42096 1.84943,3.72233 7.15064,5.52125 10.53502,3.10484 1.45759,-1.04324 2.10776,-3.75718 0.40184,-4.30869 -1.22797,-0.39588 -2.33488,0.80298 -3.53913,1.26236 -2.2313,0.85277 -4.86194,-1.37689 -4.71468,-3.75719 0.14725,-2.37781 2.57073,-4.23275 4.95927,-4.15805 2.38729,0.0735 4.53124,1.76281 5.58574,3.90782 2.00917,4.07465 0.25083,9.29089 -3.21467,12.23763 -3.46675,2.94425 -8.22636,3.9489 -12.7813,3.91654 -7.57369,-0.0548 -14.99513,-2.71519 -21.34959,-6.82967 -6.35321,-4.11448 -11.6956,-9.63822 -16.27676,-15.66117 3.60028,-4.80915 7.37652,-9.77641 12.69645,-12.58247 5.31992,-2.80607 12.65526,-2.77744 16.65612,1.70928 3.48297,3.90658 3.18222,10.57938 -0.63769,14.15606 -3.166,2.96168 -8.64816,3.43101 -11.81416,0.46933 -3.16475,-2.96417 -2.59444,-9.13278 1.36025,-10.918 -1.35151,2.57949 -0.0437,6.18355 2.6506,7.30647 2.69428,1.1167 6.17975,-0.49299 7.06578,-3.26793 1.24294,-3.89537 -2.73546,-7.96255 -6.83117,-8.11069 -5.41976,-0.19297 -10.19184,5.20005 -9.71888,10.59183 0.47297,5.39053 5.68308,9.78886 11.10658,9.78886 5.42351,0.005 10.4639,-4.04851 12.06249,-9.21993 2.09777,-6.79107 -1.9892,-14.87687 -8.71304,-17.22729 -5.31619,-1.85992 -11.35492,-0.31372 -16.08083,2.74755 -4.72467,3.06128 -8.37861,7.47952 -11.91399,11.85544 -5.26752,-7.23552 -12.78879,-12.45425 -20.16531,-17.53106 -4.22674,-2.91063 -8.45722,-5.82376 -12.68521,-8.73316 -0.76997,-0.53033 -1.58237,-1.0781 -2.51208,-1.18268 -0.92971,-0.10208 -2.00168,0.40585 -2.18887,1.32087 -0.17721,0.85029 0.43428,1.64081 0.74876,2.455 0.64143,1.66073 0.007,3.57916 -1.06698,4.99713 -1.07447,1.42046 -2.54578,2.4774 -3.86609,3.67378 -4.99921,4.52033 -7.72095,10.87443 -9.63028,17.20115 -0.47421,1.56985 -0.82738,3.17954 -1.31407,4.74566 -0.0711,0.22159 -0.16847,0.45066 -0.27579,0.6735 -0.10483,-0.22284 -0.20217,-0.45191 -0.2733,-0.6735 -0.48794,-1.56612 -0.84235,-3.17581 -1.31532,-4.74566 -1.91183,-6.32672 -4.63107,-12.68082 -9.63027,-17.20115 -1.32156,-1.19638 -2.79287,-2.25332 -3.86859,-3.67378 -1.07447,-1.41797 -1.70717,-3.3364 -1.06573,-4.99713 0.31448,-0.81419 0.92596,-1.60471 0.74876,-2.455 -0.18719,-0.91502 -1.25792,-1.42295 -2.18887,-1.32087 -0.92971,0.10458 -1.74211,0.65235 -2.51208,1.18268 -4.22924,2.9094 -8.45848,5.82253 -12.68646,8.73316 -7.37527,5.07681 -14.89779,10.29554 -20.16406,17.53106 -3.53539,-4.37592 -7.18933,-8.79416 -11.91399,-11.85544 -4.72466,-3.06127 -10.76465,-4.60747 -16.08208,-2.74755 -6.7226,2.35042 -10.80957,10.43622 -8.7118,17.22729 1.5986,5.17142 6.64024,9.22491 12.0625,9.21993 5.4235,0 10.63361,-4.39833 11.10658,-9.78886 0.47296,-5.39178 -4.29912,-10.7848 -9.71888,-10.59183 -4.09571,0.14814 -8.07411,4.21532 -6.83117,8.11069 0.88603,2.77494 4.37149,4.38463 7.06578,3.26793 2.69428,-1.12292 4.00211,-4.72698 2.6506,-7.30647 3.95594,1.78522 4.52624,7.95383 1.36024,10.918 -3.166,2.96168 -8.64815,2.49235 -11.81415,-0.46933 -3.81992,-3.57668 -4.12067,-10.24948 -0.63769,-14.15606 4.00086,-4.48672 11.33619,-4.51535 16.65612,-1.70928 5.31993,2.80606 9.09616,7.77332 12.69644,12.58247 -4.58115,6.02295 -9.92229,11.54669 -16.27675,15.66117 -6.35446,4.11448 -13.7759,6.77489 -21.35084,6.82967 -4.5537,0.0324 -9.3133,-0.97229 -12.78005,-3.91654 -3.4655,-2.94674 -5.22509,-8.16298 -3.21467,-12.23763 1.0545,-2.14501 3.19844,-3.83437 5.58698,-3.90782 2.38729,-0.0747 4.81077,1.78024 4.95803,4.15805 0.14726,2.3803 -2.48463,4.60996 -4.71468,3.75719 -1.20425,-0.45938 -2.31117,-1.65824 -3.53913,-1.26236 -1.70592,0.55151 -1.05575,3.26545 0.40308,4.30869 3.38439,2.41641 8.6856,0.61749 10.53378,-3.10484 1.84818,-3.72233 0.56781,-8.48916 -2.38355,-11.42096 -4.97924,-4.94111 -14.30752,-4.32612 -18.59291,1.22252 -4.51626,5.85364 -2.69553,14.92542 2.60568,20.07693" />
    <path
       d="m 253.06172,552.73257 c 2.34236,0.99968 5.19388,1.15654 7.57618,0.16309 -1.27039,-0.0349 -2.58196,-0.31373 -3.8848,-0.85153 -4.48382,-1.84249 -6.28708,-6.79606 -6.10737,-11.30145 0.1173,-2.89071 1.06074,-5.25981 2.54952,-7.18322 -0.453,0.38468 -0.89352,0.78804 -1.30783,1.22625 -4.58739,4.82409 -6.51545,14.66399 1.1743,17.94686 z m 82.51314,15.80683 c 6.48175,0.35978 12.61283,-2.56081 15.27717,-8.74312 2.36358,-5.48888 1.49751,-11.91021 -3.01625,-16.09192 -2.4447,-2.26452 -5.64938,-4.2427 -9.09616,-4.38961 -1.44636,-0.0598 -2.9551,-0.12075 -4.35029,0.37473 -2.20135,0.78804 -6.16353,3.56671 -3.91101,6.68401 2.93014,4.05348 9.71513,2.96915 13.97931,4.61494 7.4177,2.86208 6.1211,13.28834 -0.97713,15.72466 -9.77129,3.35384 -19.62495,-3.79951 -26.02433,-10.5383 -1.41391,-1.48768 -2.79786,-2.98533 -4.17433,-4.46804 -0.16098,0.20915 -0.32197,0.41705 -0.4842,0.63118 5.99007,7.64509 13.01217,15.66615 22.77722,16.20147 z m 7.81829,8.82404 c 0.0537,-5.2623 8.68185,-10.33165 10.85325,-14.14361 l 0.11855,-0.21164 c 5.65562,-10.23703 1.20924,-24.45658 -10.44018,-27.85522 -3.26958,-0.95362 -6.31328,-1.03827 -9.15981,-0.49673 -0.41182,0.0858 -0.86107,0.16558 -1.24294,0.28011 -2.8041,0.73202 -5.41103,2.06409 -7.83575,3.7908 -0.23711,0.1967 -0.69011,0.48801 -0.93096,0.68595 -3.62773,2.7127 -6.5404,6.03665 -9.41938,9.64818 6.44681,7.38615 13.63114,15.0412 23.49229,15.22794 2.08779,0.0411 4.29662,-0.43821 5.81286,-1.87237 1.84693,-1.74538 2.17389,-5.01581 0.39434,-6.83215 -1.06323,-1.08682 -2.61441,-1.51508 -4.08697,-1.90225 -3.91476,-1.02333 -8.52087,-1.14284 -11.86033,-3.68125 -3.71758,-2.82972 -2.70551,-8.43188 0.5129,-11.30642 2.79037,-2.49234 6.8474,-3.19697 10.55,-2.62804 5.47467,0.84406 10.47139,4.34977 13.1145,9.20623 0.19593,0.35979 0.38062,0.72704 0.54909,1.10301 2.11524,4.65229 2.15518,10.21711 0.0524,14.8806 -2.27124,5.04071 -6.98966,8.91243 -12.38446,10.15985 -1.58238,0.36476 -3.20344,0.51042 -4.82201,0.46684 1.7783,2.39026 4.07325,4.23275 6.73259,5.48017 z m 29.6633,-14.35525 0.11855,0.21164 c 2.1714,3.81196 10.79959,8.88131 10.85325,14.14361 2.65934,-1.24742 4.95428,-3.08991 6.73383,-5.48017 -1.62106,0.0435 -3.24087,-0.10208 -4.822,-0.46684 -5.39605,-1.24742 -10.11448,-5.11914 -12.38571,-10.15985 -2.10151,-4.66349 -2.06283,-10.22831 0.0524,-14.8806 0.16847,-0.37597 0.35191,-0.74322 0.54908,-1.10301 2.64437,-4.85646 7.64108,-8.36217 13.1145,-9.20623 3.70261,-0.56893 7.75963,0.1357 10.55,2.62804 3.21842,2.87454 4.23049,8.4767 0.51166,11.30642 -3.33822,2.53841 -7.94433,2.65792 -11.86033,3.68125 -1.47131,0.38717 -3.02249,0.81543 -4.08573,1.90225 -1.78079,1.81634 -1.45259,5.08677 0.39435,6.83215 1.51624,1.43416 3.72632,1.91345 5.81286,1.87237 9.86114,-0.18674 17.04548,-7.84179 23.49228,-15.22794 -2.87772,-3.61153 -5.79289,-6.93548 -9.41937,-9.64818 -0.24085,-0.19794 -0.6951,-0.48925 -0.93221,-0.68595 -2.42472,-1.72671 -5.0304,-3.05878 -7.8345,-3.7908 -0.38187,-0.11453 -0.83112,-0.19421 -1.24294,-0.28011 -2.84653,-0.54154 -5.89023,-0.45689 -9.15856,0.49673 -11.64943,3.39864 -16.09705,17.61819 -10.44143,27.85522 z m 41.56731,-10.67026 c -0.16224,-0.21413 -0.32322,-0.42203 -0.48545,-0.63118 -1.37647,1.48271 -2.75917,2.98036 -4.17308,4.46804 -6.39814,6.73879 -16.25304,13.89214 -26.02309,10.5383 -7.10072,-2.43632 -8.39607,-12.86258 -0.97837,-15.72466 4.26417,-1.64579 11.04917,-0.56146 13.97931,-4.61494 2.25251,-3.1173 -1.70966,-5.89597 -3.91101,-6.68401 -1.39519,-0.49548 -2.90394,-0.43448 -4.35029,-0.37473 -3.44678,0.14691 -6.65147,2.12509 -9.09741,4.38961 -4.51251,4.18171 -5.37983,10.60304 -3.015,16.09192 2.66433,6.18231 8.79666,9.1029 15.27716,8.74312 9.76506,-0.53532 16.78716,-8.55638 22.77723,-16.20147 z m 56.04454,-0.2938 c -1.30159,0.5378 -2.61441,0.81667 -3.88481,0.85153 2.3823,0.99345 5.23507,0.83659 7.57619,-0.16309 7.68974,-3.28287 5.76044,-13.12277 1.1743,-17.94686 -0.41556,-0.43821 -0.85608,-0.84157 -1.30783,-1.22625 1.48878,1.92341 2.43346,4.29251 2.54952,7.18322 0.18095,4.50539 -1.6248,9.45896 -6.10737,11.30145 z M 249.87825,532.09418 c 5.30121,-5.15524 13.11325,-6.95416 20.51348,-6.84958 16.3978,0.2328 31.98569,8.88379 42.78029,21.19985 5.4884,-5.4727 10.38528,-11.53549 14.58082,-18.04894 1.1768,-1.8288 2.35359,-3.75221 4.16184,-4.96477 1.8095,-1.21131 4.46385,-1.48146 6.05122,0.008 1.58737,1.49017 0.92971,4.81911 -1.2367,5.04195 7.76587,-1.04076 15.78132,-0.16558 23.13787,2.52969 2.40102,0.88016 3.99837,3.03139 2.24004,5.46523 -0.77996,1.07935 -1.94428,1.80389 -3.07865,2.50479 0.50666,-0.31372 3.32199,1.84996 3.73132,2.17613 0.30948,0.24525 0.64143,0.52287 0.95092,0.82414 0.31198,-0.30127 0.64143,-0.57889 0.95217,-0.82414 0.40932,-0.32617 3.2234,-2.48985 3.73131,-2.17613 -1.13562,-0.7009 -2.29993,-1.42544 -3.07989,-2.50479 -1.75709,-2.43384 -0.16223,-4.58507 2.24128,-5.46523 7.3553,-2.69527 15.37076,-3.57045 23.13663,-2.52969 -2.16641,-0.22284 -2.82407,-3.55178 -1.2367,-5.04195 1.58612,-1.48894 4.24171,-1.21879 6.05121,-0.008 1.80825,1.21256 2.98505,3.13597 4.1631,4.96477 4.19429,6.51345 9.09117,12.57624 14.57957,18.04894 10.79459,-12.31606 26.38249,-20.96705 42.77904,-21.19985 7.40273,-0.10458 15.21227,1.69434 20.51348,6.84958 5.30246,5.15151 7.12319,14.22329 2.60693,20.07693 -4.28664,5.54864 -13.61243,6.16363 -18.59292,1.22252 -2.9501,-2.9318 -4.23173,-7.69863 -2.38354,-11.42096 1.84943,-3.72233 7.15064,-5.52125 10.53502,-3.10484 1.45759,1.04324 2.10776,3.75718 0.40184,4.30869 -1.22797,0.39588 -2.33488,-0.80298 -3.53913,-1.26236 -2.2313,-0.85277 -4.86194,1.37689 -4.71468,3.75719 0.14725,2.37781 2.57073,4.23275 4.95927,4.15805 2.38729,-0.0735 4.53124,-1.76281 5.58574,-3.90782 2.00917,-4.07465 0.25083,-9.29089 -3.21467,-12.23763 -3.46675,-2.94425 -8.22636,-3.9489 -12.7813,-3.91654 -7.57369,0.0548 -14.99513,2.71519 -21.34959,6.82967 -6.35321,4.11448 -11.6956,9.63822 -16.27676,15.66117 3.60028,4.80915 7.37652,9.77641 12.69645,12.58247 5.31992,2.80607 12.65526,2.77744 16.65612,-1.70928 3.48297,-3.90658 3.18222,-10.57938 -0.63769,-14.15606 -3.166,-2.96168 -8.64816,-3.43101 -11.81416,-0.46933 -3.16475,2.96417 -2.59444,9.13278 1.36025,10.918 -1.35151,-2.57949 -0.0437,-6.18355 2.6506,-7.30647 2.69428,-1.1167 6.17975,0.49299 7.06578,3.26793 1.24294,3.89537 -2.73546,7.96255 -6.83117,8.11069 -5.41976,0.19297 -10.19184,-5.20005 -9.71888,-10.59183 0.47297,-5.39053 5.68308,-9.78886 11.10658,-9.78886 5.42351,-0.005 10.4639,4.04851 12.06249,9.21993 2.09777,6.79107 -1.9892,14.87687 -8.71304,17.22729 -5.31619,1.85992 -11.35492,0.31372 -16.08083,-2.74755 -4.72467,-3.06128 -8.37861,-7.47952 -11.91399,-11.85544 -5.26752,7.23552 -12.78879,12.45425 -20.16531,17.53106 -4.22674,2.91063 -8.45722,5.82376 -12.68521,8.73316 -0.76997,0.53033 -1.58237,1.0781 -2.51208,1.18268 -0.92971,0.10208 -2.00168,-0.40585 -2.18887,-1.32087 -0.17721,-0.85029 0.43428,-1.64081 0.74876,-2.455 0.64143,-1.66073 0.007,-3.57916 -1.06698,-4.99713 -1.07447,-1.42046 -2.54578,-2.4774 -3.86609,-3.67378 -4.99921,-4.52033 -7.72095,-10.87443 -9.63028,-17.20115 -0.47421,-1.56985 -0.82738,-3.17954 -1.31407,-4.74566 -0.0711,-0.22159 -0.16847,-0.45066 -0.27579,-0.6735 -0.10483,0.22284 -0.20217,0.45191 -0.2733,0.6735 -0.48794,1.56612 -0.84235,3.17581 -1.31532,4.74566 -1.91183,6.32672 -4.63107,12.68082 -9.63027,17.20115 -1.32156,1.19638 -2.79287,2.25332 -3.86859,3.67378 -1.07447,1.41797 -1.70717,3.3364 -1.06573,4.99713 0.31448,0.81419 0.92596,1.60471 0.74876,2.455 -0.18719,0.91502 -1.25792,1.42295 -2.18887,1.32087 -0.92971,-0.10458 -1.74211,-0.65235 -2.51208,-1.18268 -4.22924,-2.9094 -8.45848,-5.82253 -12.68646,-8.73316 -7.37527,-5.07681 -14.89779,-10.29554 -20.16406,-17.53106 -3.53539,4.37592 -7.18933,8.79416 -11.91399,11.85544 -4.72466,3.06127 -10.76465,4.60747 -16.08208,2.74755 -6.7226,-2.35042 -10.80957,-10.43622 -8.7118,-17.22729 1.5986,-5.17142 6.64024,-9.22491 12.0625,-9.21993 5.4235,0 10.63361,4.39833 11.10658,9.78886 0.47296,5.39178 -4.29912,10.7848 -9.71888,10.59183 -4.09571,-0.14814 -8.07411,-4.21532 -6.83117,-8.11069 0.88603,-2.77494 4.37149,-4.38463 7.06578,-3.26793 2.69428,1.12292 4.00211,4.72698 2.6506,7.30647 3.95594,-1.78522 4.52624,-7.95383 1.36024,-10.918 -3.166,-2.96168 -8.64815,-2.49235 -11.81415,0.46933 -3.81992,3.57668 -4.12067,10.24948 -0.63769,14.15606 4.00086,4.48672 11.33619,4.51535 16.65612,1.70928 5.31993,-2.80606 9.09616,-7.77332 12.69644,-12.58247 -4.58115,-6.02295 -9.92229,-11.54669 -16.27675,-15.66117 -6.35446,-4.11448 -13.7759,-6.77489 -21.35084,-6.82967 -4.5537,-0.0324 -9.3133,0.97229 -12.78005,3.91654 -3.4655,2.94674 -5.22509,8.16298 -3.21467,12.23763 1.0545,2.14501 3.19844,3.83437 5.58698,3.90782 2.38729,0.0747 4.81077,-1.78024 4.95803,-4.15805 0.14726,-2.3803 -2.48463,-4.60996 -4.71468,-3.75719 -1.20425,0.45938 -2.31117,1.65824 -3.53913,1.26236 -1.70592,-0.55151 -1.05575,-3.26545 0.40308,-4.30869 3.38439,-2.41641 8.6856,-0.61749 10.53378,3.10484 1.84818,3.72233 0.56781,8.48916 -2.38355,11.42096 -4.97924,4.94111 -14.30752,4.32612 -18.59291,-1.22252 -4.51626,-5.85364 -2.69553,-14.92542 2.60568,-20.07693"
       style="fill:#cba86d;fill-opacity:1;fill-rule:nonzero;stroke:none"
       id="path22161"
       inkscape:connector-curvature="0" />
    <path
       inkscape:connector-curvature="0"
       style="fill:none;fill-opacity:1;stroke:#ff0000;stroke-width:2.45730662;stroke-miterlimit:4;stroke-dasharray:none;stroke-opacity:1"
       d="M 363.71066,611.07368 A 95.771347,110.77135 0 0 1 267.93932,500.30234 95.771347,110.77135 0 0 1 363.71066,389.53099 95.771347,110.77135 0 0 1 459.48201,500.30234 95.771347,110.77135 0 0 1 363.71066,611.07368 Z"
       id="ellipse22163" />
    <text
       xml:space="preserve"
       style="font-style:normal;font-weight:normal;font-size:40px;line-height:125%;font-family:sans-serif;letter-spacing:0px;word-spacing:0px;fill:#ff0000;fill-opacity:1;stroke:none;stroke-width:1px;stroke-linecap:butt;stroke-linejoin:miter;stroke-opacity:1"
       id="text22165"
       sodipodi:linespacing="125%"><textPath
         xlink:href="#ellipse22163"
         id="textPath22190"><tspan
   style="font-style:normal;font-variant:normal;font-weight:bold;font-stretch:normal;font-size:30px;font-family:Merriweather;-inkscape-font-specification:'Merriweather Bold';letter-spacing:0px;fill:#ff0000"
   id="tspan22167"
   dx="0 0 0 0 0 0 0 0 0 0 0 0 0 0 0 0 104.04057">                INGENIARE</tspan></textPath></text>
    <text
       xml:space="preserve"
       style="font-style:normal;font-weight:normal;font-size:40px;line-height:125%;font-family:sans-serif;letter-spacing:0px;word-spacing:0px;fill:#008000;fill-opacity:1;stroke:none;stroke-width:1px;stroke-linecap:butt;stroke-linejoin:miter;stroke-opacity:1"
       id="text22203"
       sodipodi:linespacing="125%"
       x="-55.130257"><textPath
         xlink:href="#path22159"
         id="textPath22208"><tspan
           style="font-style:normal;font-variant:normal;font-weight:bold;font-stretch:normal;font-size:30px;font-family:Merriweather;-inkscape-font-specification:'Merriweather Bold';fill:#008000"
           id="tspan22205" /></textPath></text>
  </g>
</svg>
