<?xml version="1.0" encoding="UTF-8" standalone="no"?>
<svg
   xmlns:sketch="http://www.bohemiancoding.com/sketch/ns"
   xmlns:dc="http://purl.org/dc/elements/1.1/"
   xmlns:cc="http://creativecommons.org/ns#"
   xmlns:rdf="http://www.w3.org/1999/02/22-rdf-syntax-ns#"
   xmlns:svg="http://www.w3.org/2000/svg"
   xmlns="http://www.w3.org/2000/svg"
   xmlns:sodipodi="http://sodipodi.sourceforge.net/DTD/sodipodi-0.dtd"
   xmlns:inkscape="http://www.inkscape.org/namespaces/inkscape"
   width="60px"
   height="60px"
   viewBox="0 0 60 60"
   version="1.1"
   id="svg4199"
   inkscape:version="0.91 r13725"
   sodipodi:docname="Realheart2.svg">
  <metadata
     id="metadata4214">
    <rdf:RDF>
      <cc:Work
         rdf:about="">
        <dc:format>image/svg+xml</dc:format>
        <dc:type
           rdf:resource="http://purl.org/dc/dcmitype/StillImage" />
        <dc:title>Realheart</dc:title>
      </cc:Work>
    </rdf:RDF>
  </metadata>
  <sodipodi:namedview
     pagecolor="#ffffff"
     bordercolor="#666666"
     borderopacity="1"
     objecttolerance="10"
     gridtolerance="10"
     guidetolerance="10"
     inkscape:pageopacity="0"
     inkscape:pageshadow="2"
     inkscape:window-width="3070"
     inkscape:window-height="1752"
     id="namedview4212"
     showgrid="false"
     inkscape:zoom="15.733333"
     inkscape:cx="16.815823"
     inkscape:cy="35.69636"
     inkscape:window-x="130"
     inkscape:window-y="48"
     inkscape:window-maximized="1"
     inkscape:current-layer="svg4199" />
  <!-- Generator: Sketch 3.3.3 (12081) - http://www.bohemiancoding.com/sketch -->
  <title
     id="title4201">Realheart</title>
  <desc
     id="desc4203">Created with Sketch.</desc>
  <defs
     id="defs4205" />
  <rect
     style="fill:#ff0000;fill-opacity:1;stroke:none;stroke-width:3;stroke-miterlimit:4;stroke-dasharray:none;stroke-opacity:1"
     id="rect4149"
     width="42.902542"
     height="55.487289"
     x="8.7711849"
     y="1.4618638" />
  <g
     id="g4762">
    <g
       sketch:type="MSPage"
       fill-rule="evenodd"
       fill="none"
       stroke-width="1"
       stroke="none"
       id="outlined">
      <g
         transform="translate(-360.000000, -1560.000000)"
         sketch:type="MSLayerGroup"
         id="Medical_sliced" />
      <g
         fill="#535353"
         transform="translate(-359.000000, -1557.000000)"
         sketch:type="MSLayerGroup"
         id="Imported-Layers">
        <path
           sketch:type="MSShapeGroup"
           id="Fill-608"
           d="M390.697,1613.587 C390.696,1613.587 390.697,1613.587 390.696,1613.587 C386.452,1613.587 381.389,1609.838 375.219,1602.125 C362.658,1586.424 371.217,1573.605 373.677,1570.516 C372.85,1569.492 371.5,1567.448 371.5,1565 C371.5,1560.807 375.87,1559.131 378.165,1559.514 C381.144,1560.01 382.744,1564.312 383.279,1566.073 L386.621,1566.407 C386.819,1565.328 387.342,1563.597 388.719,1561.875 C389.712,1560.634 391.109,1559.978 392.757,1559.978 C394.351,1559.978 396.162,1560.621 397.6,1561.7 C399.685,1563.264 399.009,1566.789 398.622,1568.231 C398.892,1568.443 399.352,1568.696 400.019,1568.696 C400.341,1568.696 400.689,1568.638 401.054,1568.523 C401.31,1568.392 402.171,1567.46 402.685,1566.903 C403.31,1566.228 403.899,1565.589 404.386,1565.211 C405.995,1563.959 408.182,1564.169 409.329,1565.578 C409.934,1566.319 410.17,1567.276 409.979,1568.202 C409.751,1569.307 409.025,1570.329 408.324,1571.318 C407.45,1572.55 406.624,1573.712 406.949,1574.684 C408.578,1579.57 403.922,1600.42 399.832,1606.555 C397.853,1609.523 395.144,1613.587 390.697,1613.587 L390.697,1613.587 Z M377.434,1561.456 C376.201,1561.456 373.5,1562.349 373.5,1565 C373.5,1567.598 375.676,1569.763 375.698,1569.784 C376.089,1570.168 376.1,1570.797 375.721,1571.192 C375.217,1571.72 363.518,1584.297 376.781,1600.875 C382.467,1607.983 387.149,1611.587 390.697,1611.587 C393.825,1611.587 395.848,1608.925 398.168,1605.445 C402.165,1599.449 406.366,1579.262 405.051,1575.316 C404.406,1573.382 405.621,1571.671 406.693,1570.161 C407.275,1569.34 407.877,1568.491 408.02,1567.798 C408.115,1567.34 407.91,1567.002 407.779,1566.841 C407.292,1566.244 406.386,1566.189 405.614,1566.789 C405.257,1567.067 404.696,1567.674 404.154,1568.261 C403.001,1569.508 402.317,1570.224 401.653,1570.432 C401.095,1570.607 400.545,1570.696 400.019,1570.696 C398.238,1570.696 397.074,1569.664 396.668,1569.055 C396.497,1568.799 396.454,1568.477 396.551,1568.185 C396.963,1566.937 397.47,1564.103 396.4,1563.3 C395.312,1562.484 393.916,1561.978 392.757,1561.978 C391.723,1561.978 390.89,1562.363 390.281,1563.125 C388.548,1565.29 388.5,1567.479 388.5,1567.5 C388.5,1567.782 388.38,1568.052 388.171,1568.241 C387.961,1568.431 387.68,1568.519 387.4,1568.495 L382.4,1567.995 C381.981,1567.953 381.633,1567.652 381.53,1567.243 C381.18,1565.852 379.749,1561.806 377.835,1561.486 C377.712,1561.466 377.577,1561.456 377.434,1561.456 L377.434,1561.456 Z" />
        <path
           sketch:type="MSShapeGroup"
           id="Fill-609"
           d="M370.102,1593.093 L369.908,1591.103 L370.903,1591.005 C371.102,1590.985 390.867,1588.939 395.081,1579.106 C395.219,1578.783 395.517,1578.557 395.866,1578.509 C396.215,1578.466 396.562,1578.602 396.781,1578.875 L397.53,1579.813 C401.97,1585.374 402.617,1586.064 404.757,1585.53 L405.727,1585.287 L406.213,1587.228 L405.243,1587.47 C401.83,1588.326 400.474,1586.705 396.185,1581.334 C390.431,1591 371.919,1592.915 371.097,1592.995 L370.102,1593.093" />
      </g>
    </g>
    <path
       id="rect4179"
       d="m -2.0054623,-2.2857531 0,62.1562521 63.1210943,0 0,-62.1562521 -63.1210943,0 z m 20.6953133,4.738283 c 0.158075,0.0077 0.309687,0.02294 0.453125,0.04687 2.979,0.496 4.580234,4.799547 5.115234,6.560547 l 3.341797,0.333984 c 0.198,-1.079 0.720656,-2.811203 2.097656,-4.533203 0.993,-1.241 2.38911,-1.896484 4.03711,-1.896484 1.594,0 3.405749,0.643656 4.84375,1.722656 2.085,1.564 1.408484,5.087297 1.021484,6.5292971 0.27,0.212 0.731437,0.466797 1.398437,0.466797 0.322,0 0.670157,-0.05883 1.035157,-0.173828 0.256,-0.131 1.116859,-1.062141 1.630859,-1.6191411 0.625,-0.675 1.214172,-1.315359 1.701172,-1.693359 1.609,-1.252 3.794406,-1.041813 4.941406,0.367187 0.605,0.741 0.841391,1.6990001 0.650391,2.6250001 -0.228,1.105 -0.953297,2.126235 -1.654297,3.115235 -0.874,1.232 -1.7,2.393234 -1.375,3.365234 1.629,4.886 -3.027188,25.736094 -7.117188,31.871094 -1.979,2.968 -4.687765,7.033203 -9.134765,7.033203 l -0.002,0 c -4.244,0 -9.306563,-3.749891 -15.476563,-11.462891 C 3.6366157,29.409728 12.1966,16.590353 14.6566,13.501353 c -0.826999,-1.024 -2.177734,-3.067625 -2.177734,-5.5156251 0,-3.930937 3.839813,-5.649299 6.210938,-5.533203 z"
       style="fill:#ffffff;stroke:none;stroke-width:3;stroke-miterlimit:4;stroke-dasharray:none;stroke-opacity:1"
       inkscape:connector-curvature="0" />
  </g>
</svg>
