<?xml version="1.0" encoding="UTF-8" standalone="no"?>
<!-- Created with Inkscape (http://www.inkscape.org/) -->

<svg
   xmlns:dc="http://purl.org/dc/elements/1.1/"
   xmlns:cc="http://creativecommons.org/ns#"
   xmlns:rdf="http://www.w3.org/1999/02/22-rdf-syntax-ns#"
   xmlns:svg="http://www.w3.org/2000/svg"
   xmlns="http://www.w3.org/2000/svg"
   xmlns:sodipodi="http://sodipodi.sourceforge.net/DTD/sodipodi-0.dtd"
   xmlns:inkscape="http://www.inkscape.org/namespaces/inkscape"
   width="142.73929mm"
   height="154.8916mm"
   viewBox="0 0 505.76913 548.82851"
   id="svg5258"
   version="1.1"
   inkscape:version="0.91 r13725"
   sodipodi:docname="drawing-1.svg">
  <defs
     id="defs5260" />
  <sodipodi:namedview
     id="base"
     pagecolor="#ffffff"
     bordercolor="#666666"
     borderopacity="1.0"
     inkscape:pageopacity="0.0"
     inkscape:pageshadow="2"
     inkscape:zoom="0.35"
     inkscape:cx="-875.68684"
     inkscape:cy="242.98568"
     inkscape:document-units="px"
     inkscape:current-layer="layer1"
     showgrid="false"
     fit-margin-top="0"
     fit-margin-left="0"
     fit-margin-right="0"
     fit-margin-bottom="0"
     inkscape:window-width="3070"
     inkscape:window-height="1752"
     inkscape:window-x="130"
     inkscape:window-y="48"
     inkscape:window-maximized="1" />
  <metadata
     id="metadata5263">
    <rdf:RDF>
      <cc:Work
         rdf:about="">
        <dc:format>image/svg+xml</dc:format>
        <dc:type
           rdf:resource="http://purl.org/dc/dcmitype/StillImage" />
        <dc:title></dc:title>
      </cc:Work>
    </rdf:RDF>
  </metadata>
  <g
     inkscape:label="Capa 1"
     inkscape:groupmode="layer"
     id="layer1"
     transform="translate(-103.54398,-226.51938)">
    <path
       inkscape:connector-curvature="0"
       id="path4195-3"
       style="fill:#ffffff;fill-opacity:1;fill-rule:nonzero;stroke:none"
       d="m 212.65913,621.01938 c 23.81363,0 38.00512,-19.4335 38.00512,-42.00638 0,-22.72225 -14.19149,-41.1095 -38.42862,-41.1095 -22.34362,0 -37.5815,19.83225 -37.5815,40.91013 0,22.3735 14.40575,42.20575 38.005,42.20575 z m 46.77013,6.67712 -9.39288,0 c 0,0 0,0 -3.27887,-13.25462 -7.97275,9.76662 -21.347,15.3475 -33.88913,15.3475 -29.235,0 -47.61212,-22.57275 -47.61212,-50.97575 0,-28.40288 18.37712,-49.68013 47.19362,-49.68013 20.35038,0 29.02575,6.47788 37.17288,18.78588 l 0.41362,0 0,-174.055 9.39288,0 0,253.83212" />
    <g
       id="g5076"
       transform="matrix(1.25,0,0,-1.25,80.397129,7057.3931)"
       style="fill:#ffffff">
      <path
         d="m 201.35234,5150.3401 c -18.70804,0 -30.40803,15.8658 -30.40803,33.7646 0,16.7029 12.02688,32.7281 29.90575,32.7281 18.70803,0 30.90632,-14.032 30.90632,-31.891 0,-18.7359 -10.8509,-34.6017 -30.40404,-34.6017 z m 29.89777,58.5199 0,-0.04 -0.32688,0 c -6.51771,9.8463 -17.70745,15.0286 -29.73832,15.0286 -23.21662,0 -37.75092,-17.0218 -37.75092,-39.7441 0,-22.7223 14.70173,-40.7806 38.08976,-40.7806 10.19714,0 20.80088,4.3053 27.15914,12.278 2.32804,-9.049 2.56722,-10.6037 2.56722,-10.6037 l 7.52627,0 0,55.0119 -7.52627,8.8497"
         style="fill:#ffffff;fill-opacity:1;fill-rule:nonzero;stroke:none"
         id="path4175-6"
         inkscape:connector-curvature="0" />
      <path
         d="m 19.880824,5181.0352 c -0.19932,1.1959 -0.34283,2.3918 -0.4983,3.5877 l -0.10763,-0.04 c 0.0917,-1.9931 0.31891,-3.9465 0.68964,-5.8599 1.16003,-6.139 3.00174,-10.8429 5.51315,-13.9922 2.51141,-3.1891 5.13444,-5.2221 7.84518,-6.0593 2.71073,-0.877 5.05073,-1.156 7.03594,-0.7574 2.88215,0.5581 5.04674,2.0331 6.48981,4.5046 1.45104,2.4716 1.93339,4.9431 1.47097,7.3748 -0.63383,3.3087 -2.18054,5.5012 -4.66007,6.6174 -2.47155,1.0763 -5.53308,1.7141 -9.18061,1.9932 -4.32521,0.3986 -6.92033,2.3121 -7.82923,5.6606 0.0877,-0.6378 0.15547,-1.2358 0.2631,-1.8337 l -7.03195,-1.1959"
         style="fill:#ffffff;fill-opacity:1;fill-rule:nonzero;stroke:none"
         id="path4177-7"
         inkscape:connector-curvature="0" />
      <path
         d="m 128.64494,5299.3108 c 56.59848,0 102.64105,-46.0426 102.64105,-102.6491 l 7.49039,0 c 0,60.7125 -49.40707,110.1036 -110.13144,110.1036 -60.724376,0 -110.127456,-49.3911 -110.127456,-110.1036 0,-6.418 0.58201,-12.6766 1.63441,-18.7758 l 7.03594,3.1493 c -0.78133,5.0627 -1.18794,10.2848 -1.18794,15.6265 0,56.6065 46.05055,102.6491 102.645046,102.6491"
         style="fill:#ffffff;fill-opacity:1;fill-rule:nonzero;stroke:none"
         id="path4179-5"
         inkscape:connector-curvature="0" />
    </g>
    <path
       inkscape:connector-curvature="0"
       id="path4217-3"
       style="fill:#ffffff;fill-opacity:1;fill-rule:nonzero;stroke:none"
       d="m 395.70063,375.33651 0.4135,0 c 5.64075,-10.63363 16.09,-17.1115 28.60225,-17.1115 24.85,0 31.7515,15.45212 31.7515,40.28725 l 0,363.41237 -9.40287,0 0,-363.41237 c 0,-17.32075 -2.08288,-25.42313 -23.17075,-25.42313 -24.22725,0 -28.19363,16.66313 -28.19363,36.08663 l 0,352.74887 -9.40788,0 0,-401.61175 9.40788,0 0,15.02363" />
    <g
       id="g5217"
       transform="matrix(1.25,0,0,-1.25,-5440.7648,3509.9629)"
       style="fill:#ffffff">
      <path
         d="m 4740.992,2591.7606 c 0,-3.8269 -3.0017,-6.8565 -6.8406,-6.8565 -3.8429,0 -6.8606,3.0296 -6.8606,6.8565 0,3.8269 3.0177,6.8566 6.8606,6.8566 3.8389,0 6.8406,-3.0297 6.8406,-6.8566"
         style="fill:#ffffff;fill-opacity:1;fill-rule:nonzero;stroke:none"
         id="path4233-5"
         inkscape:connector-curvature="0" />
      <path
         d="m 4738.652,2209.6511 -8.3435,0 0,308.9198 7.5103,0 0.8332,-308.9198"
         style="fill:#ffffff;fill-opacity:1;fill-rule:nonzero;stroke:none"
         id="path4235-6"
         inkscape:connector-curvature="0" />
      <path
         d="m 4737.8707,2520.8032 -1.0883,0 c -1.0405,-0.4783 -3.0018,-0.9567 -5.8799,-1.4749 -2.8822,-0.4784 -5.3417,-0.7176 -7.3907,-0.7176 l 0,-2.3918 c 2.2881,0 3.8986,-0.279 4.8195,-0.877 0.9089,-0.5979 1.4909,-1.5148 1.7101,-2.7107 0.1914,-0.9966 0.291,-2.9898 0.3309,-5.9796 l 7.4984,0 0,14.1516"
         style="fill:#ffffff;fill-opacity:1;fill-rule:nonzero;stroke:none"
         id="path4237-2"
         inkscape:connector-curvature="0" />
      <path
         d="m 4730.3524,2213.773 c 0,-5.262 -0.06,-8.4311 -0.1794,-9.5314 -0.1236,-1.0883 -0.582,-2.029 -1.4032,-2.8064 -0.8292,-0.7933 -2.6191,-1.1919 -5.3776,-1.1919 l -1.7899,0 0,-2.639 23.8903,0 0,2.639 c -2.3719,0 -4.0501,0.3588 -5.0109,1.0683 -0.9607,0.7096 -1.5028,1.7022 -1.6423,2.9938 -0.1276,1.2876 -0.1994,4.4368 -0.1994,9.4676 l 0,0.881 -8.2876,0 0,-0.881"
         style="fill:#ffffff;fill-opacity:1;fill-rule:nonzero;stroke:none"
         id="path4239-9"
         inkscape:connector-curvature="0" />
    </g>
    <g
       id="g5201"
       transform="matrix(1.25,0,0,-1.25,-5453.1562,3536.9323)"
       style="fill:#ffffff">
      <path
         d="m 4800.6204,2339.1929 c -1.3912,-0.1993 -2.7984,-0.2791 -4.2295,-0.2791 -18.0423,0 -33.4217,13.6733 -33.4217,32.0505 0,19.0548 14.2114,33.6051 33.4217,33.6051 18.708,0 33.0789,-14.7097 33.0789,-33.6051 0,-0.6379 -0.028,-1.2757 -0.068,-1.9135 l 6.9961,0 c 0.052,0.7973 0.084,1.5946 0.084,2.4317 0,22.7223 -17.3726,40.5812 -40.2623,40.5812 -22.8778,0 -40.2584,-17.8589 -40.2584,-40.5812 0,-22.4034 18.2177,-40.1029 40.4298,-40.1029 6.7609,0 13.171,1.7141 18.7997,4.7438 l -14.5702,3.0695"
         style="fill:#ffffff;fill-opacity:1;fill-rule:nonzero;stroke:none"
         id="path4373-1"
         inkscape:connector-curvature="0" />
      <path
         d="m 4762.5984,2369.0508 69.97,0 0,7.0742 -69.97,0 0,-7.0742 z"
         style="fill:#ffffff;fill-opacity:1;fill-rule:nonzero;stroke:none"
         id="path4375-2"
         inkscape:connector-curvature="0" />
      <path
         d="m 4807.17,2340.4685 c -0.4185,-0.1594 -0.8411,-0.3189 -1.2676,-0.4385 l -3.2808,-4.2255 -5.8799,0.1594 1.2398,-4.4647 c 0.6298,0 1.2876,0.08 1.9294,0.08 6.9681,0.7574 15.8577,4.1458 19.0708,6.8964 -1.2199,-0.877 -2.7028,-1.4749 -4.3093,-1.5945 -3.0615,-0.1993 -5.852,1.2358 -7.5024,3.5877"
         style="fill:#ffffff;fill-opacity:1;fill-rule:nonzero;stroke:none"
         id="path4377-7"
         inkscape:connector-curvature="0" />
      <path
         d="m 4802.0117,2339.0334 c 0.5501,0.1994 1.0006,0.5183 1.3195,0.877 0.7215,0.8372 1.1999,2.1527 1.447,3.9864 -1.5068,-7.2153 -16.0371,-5.8998 -22.6665,-1.9533 4.1578,-2.6709 9.2604,-4.0262 15.3196,-3.5479 1.5866,0.1196 3.0975,0.3189 4.5804,0.6378"
         style="fill:#ffffff;fill-opacity:1;fill-rule:nonzero;stroke:none"
         id="path4379-0"
         inkscape:connector-curvature="0" />
      <path
         d="m 4782.3629,2337.9571 7.0957,-1.7938 7.2831,-0.1994 -0.06,0.1994 c 0.9209,-0.1595 1.7102,2.2323 2.7705,2.312 1.0285,0.08 1.8776,0.2392 2.5593,0.5581 -1.4829,-0.3189 -2.9938,-0.5182 -4.5804,-0.6378 -6.0592,-0.4783 -11.1618,0.877 -15.3196,3.5479 -0.06,0.04 -0.1196,0.08 -0.1714,0.08 -7.3389,4.5445 0.4226,-4.0661 0.4226,-4.0661"
         style="fill:#ffffff;fill-opacity:1;fill-rule:nonzero;stroke:none"
         id="path4381-9"
         inkscape:connector-curvature="0" />
      <path
         d="m 4805.9024,2340.03 c -1.2517,-0.3986 -2.5513,-0.7574 -3.8907,-0.9966 -0.6817,-0.3189 -1.5308,-0.4783 -2.5593,-0.5581 -1.0603,-0.08 -1.8496,-2.4715 -2.7705,-2.312 l 0.06,-0.1994 5.8799,-0.1594 3.2808,4.2255"
         style="fill:#ffffff;fill-opacity:1;fill-rule:nonzero;stroke:none"
         id="path4383-3"
         inkscape:connector-curvature="0" />
      <path
         d="m 4806.7515,2341.1063 -0.8491,-1.0763 c 0.4265,0.1196 0.8491,0.2791 1.2676,0.4385 -0.1514,0.1993 -0.291,0.3987 -0.4185,0.6378"
         style="fill:#ffffff;fill-opacity:1;fill-rule:nonzero;stroke:none"
         id="path4385-6"
         inkscape:connector-curvature="0" />
      <path
         d="m 4813.2293,2353.6634 c -0.08,0 -0.1475,0 -0.2192,0 -4.6601,-0.3588 -7.3987,-3.6276 -8.2319,-9.7666 0.2711,1.3155 0.602,2.1526 0.9607,2.6709 0.582,3.7472 3.5997,6.6971 7.4904,7.0957"
         style="fill:#ffffff;fill-opacity:1;fill-rule:nonzero;stroke:none"
         id="path4387-0"
         inkscape:connector-curvature="0" />
      <path
         d="m 4802.0117,2339.0334 c 1.3394,0.2392 2.639,0.598 3.8907,0.9966 l 0.8491,1.0763 c -0.6099,1.0365 -1.0006,2.2723 -1.1003,3.5479 -0.052,0.6777 -0.012,1.3155 0.088,1.9135 -0.3587,-0.5183 -0.6896,-1.3554 -0.9607,-2.6709 -0.2471,-1.8337 -0.7255,-3.1492 -1.447,-3.9864 -0.3189,-0.3587 -0.7694,-0.6776 -1.3195,-0.877"
         style="fill:#ffffff;fill-opacity:1;fill-rule:nonzero;stroke:none"
         id="path4389-6"
         inkscape:connector-curvature="0" />
      <path
         d="m 4818.9298,2351.5905 c 0.6897,-0.6378 1.2318,-1.3952 1.6584,-2.1925 0.5421,-1.0365 0.881,-2.1526 0.9726,-3.3486 0.2073,-2.8303 0.6379,-4.7039 -2.4596,-7.4545 2.2085,1.6344 3.5599,4.3452 3.3406,7.2951 -0.3508,4.664 -4.393,8.1322 -9.0211,7.7734 -0.072,0 -0.1316,0 -0.1914,0 2.2523,0.1196 4.1498,-0.5581 5.7005,-2.0729"
         style="fill:#ffffff;fill-opacity:1;fill-rule:nonzero;stroke:none"
         id="path4391-2"
         inkscape:connector-curvature="0" />
      <path
         d="m 4821.5608,2346.0494 c -0.092,1.196 -0.4305,2.3121 -0.9726,3.3486 -3.8987,-4.0661 -8.3076,-7.0957 -13.4182,-8.9295 1.6504,-2.3519 4.4409,-3.787 7.5024,-3.5877 1.6065,0.1196 3.0894,0.7175 4.3093,1.5945 0.04,0.04 0.08,0.08 0.1195,0.1196 3.0975,2.7506 2.6669,4.6242 2.4596,7.4545"
         style="fill:#ffffff;fill-opacity:1;fill-rule:nonzero;stroke:none"
         id="path4393-6"
         inkscape:connector-curvature="0" />
      <path
         d="m 4819.0813,2338.5551 c 0.01,0 0.02,0 0.02,0.04 -0.04,-0.04 -0.08,-0.08 -0.1195,-0.1196 0.028,0.04 0.068,0.08 0.1,0.08"
         style="fill:#ffffff;fill-opacity:1;fill-rule:nonzero;stroke:none"
         id="path4395-1"
         inkscape:connector-curvature="0" />
      <path
         d="m 4805.7389,2346.5677 c 1.5906,2.3918 3.6715,-2.0331 3.6715,-2.0331 l -2.6589,-3.4283 c 0.1275,-0.2391 0.2671,-0.4385 0.4185,-0.6378 5.1106,1.8338 9.5195,4.8634 13.4182,8.9295 -0.4266,0.7973 -0.9687,1.5547 -1.6584,2.1925 -1.5507,1.5148 -3.4482,2.1925 -5.7005,2.0729 -3.8907,-0.3986 -6.9084,-3.3485 -7.4904,-7.0957"
         style="fill:#ffffff;fill-opacity:1;fill-rule:nonzero;stroke:none"
         id="path4397-8"
         inkscape:connector-curvature="0" />
      <path
         d="m 4805.7389,2346.5677 c -0.1,-0.598 -0.1395,-1.2358 -0.088,-1.9135 0.1,-1.2756 0.4904,-2.5114 1.1003,-3.5479 l 2.6589,3.4283 c 0,0 -2.0809,4.4249 -3.6715,2.0331"
         style="fill:#ffffff;fill-opacity:1;fill-rule:nonzero;stroke:none"
         id="path4399-7"
         inkscape:connector-curvature="0" />
    </g>
    <path
       inkscape:connector-curvature="0"
       id="path4201-9"
       style="fill:#ffffff;fill-opacity:1;fill-rule:nonzero;stroke:none"
       d="m 599.91363,775.34788 9.3995,0 0,-548.8285 -9.3995,0 0,548.8285 z" />
  </g>
</svg>
