<?xml version="1.0" encoding="UTF-8" standalone="no"?>
<!-- Created with Inkscape (http://www.inkscape.org/) -->

<svg
   xmlns:dc="http://purl.org/dc/elements/1.1/"
   xmlns:cc="http://creativecommons.org/ns#"
   xmlns:rdf="http://www.w3.org/1999/02/22-rdf-syntax-ns#"
   xmlns:svg="http://www.w3.org/2000/svg"
   xmlns="http://www.w3.org/2000/svg"
   xmlns:xlink="http://www.w3.org/1999/xlink"
   xmlns:sodipodi="http://sodipodi.sourceforge.net/DTD/sodipodi-0.dtd"
   xmlns:inkscape="http://www.inkscape.org/namespaces/inkscape"
   width="236"
   height="264.78745"
   viewBox="0 0 236 264.78743"
   id="svg21028"
   version="1.1"
   inkscape:version="0.91 r13725"
   sodipodi:docname="iconorig.svg">
  <defs
     id="defs21030" />
  <sodipodi:namedview
     id="base"
     pagecolor="#ffffff"
     bordercolor="#666666"
     borderopacity="1.0"
     inkscape:pageopacity="0"
     inkscape:pageshadow="2"
     inkscape:zoom="2"
     inkscape:cx="77.93768"
     inkscape:cy="87.504897"
     inkscape:document-units="px"
     inkscape:current-layer="g4165"
     showgrid="false"
     inkscape:window-width="1855"
     inkscape:window-height="1056"
     inkscape:window-x="1985"
     inkscape:window-y="24"
     inkscape:window-maximized="1"
     showguides="true"
     inkscape:guide-bbox="true"
     fit-margin-top="0"
     fit-margin-left="0"
     fit-margin-right="0"
     fit-margin-bottom="0"
     units="px">
    <sodipodi:guide
       position="180.28933,213.42686"
       orientation="0,1"
       id="guide4157" />
  </sodipodi:namedview>
  <metadata
     id="metadata21033">
    <rdf:RDF>
      <cc:Work
         rdf:about="">
        <dc:format>image/svg+xml</dc:format>
        <dc:type
           rdf:resource="http://purl.org/dc/dcmitype/StillImage" />
        <dc:title></dc:title>
      </cc:Work>
    </rdf:RDF>
  </metadata>
  <g
     inkscape:label="Capa 1"
     inkscape:groupmode="layer"
     id="layer1"
     transform="translate(-186.85353,-40.287344)">
    <g
       id="g4165">
      <path
         style="fill:none;fill-rule:evenodd;stroke:none;stroke-width:1px;stroke-linecap:butt;stroke-linejoin:miter;stroke-opacity:1"
         d="m 229.28571,87.362205 c 0,0 67.14286,-59.285713 146.42858,0 C 455,146.64792 452.85714,145.21935 452.85714,145.21935"
         id="path4426"
         inkscape:connector-curvature="0" />
      <path
         style="fill:none;fill-rule:evenodd;stroke:none;stroke-width:1px;stroke-linecap:butt;stroke-linejoin:miter;stroke-opacity:1"
         d="m 238.61373,276.88265 c 0,0 67.19946,73.90733 156.71928,-18.91947 89.51981,-92.8268 88.52958,-89.1099 88.52958,-89.1099 l 0.70913,-0.0856 0,0"
         id="path4439"
         inkscape:connector-curvature="0" />
      <path
         d="m 195.13441,113.47316 c 2.32268,-0.99968 5.15024,-1.15654 7.51252,-0.16309 -1.25972,0.0349 -2.56027,0.31372 -3.85216,0.85153 -4.44613,1.84249 -6.23424,6.79606 -6.05605,11.30144 0.11632,2.89072 1.05183,5.25982 2.5281,7.18323 -0.44919,-0.38468 -0.88601,-0.78804 -1.29684,-1.22625 -4.54884,-4.82409 -6.46069,-14.66399 1.16443,-17.94686 z m 81.81976,-15.80683 c 6.42728,-0.35978 12.50684,2.56081 15.14878,8.74312 2.34372,5.48888 1.48493,11.91021 -2.9909,16.09191 -2.42415,2.26453 -5.60191,4.24271 -9.01972,4.38961 -1.4342,0.0598 -2.93027,0.12076 -4.31373,-0.37472 -2.18285,-0.78804 -6.11173,-3.56671 -3.87815,-6.68401 2.90552,-4.05348 9.6335,-2.96915 13.86184,-4.61494 7.35537,-2.86209 6.06966,-13.28834 -0.96892,-15.72466 -9.68918,-3.35383 -19.46003,3.79951 -25.80564,10.5383 -1.40202,1.48768 -2.77435,2.98533 -4.13925,4.46804 -0.15963,-0.20915 -0.31926,-0.41705 -0.48013,-0.63118 5.93973,-7.64509 12.90282,-15.66615 22.58582,-16.20147 z m 7.75258,-8.824037 c 0.0533,5.262307 8.6089,10.331647 10.76205,14.143607 l 0.11755,0.21164 c 5.6081,10.23703 1.19909,24.45657 -10.35245,27.85522 -3.2421,0.95362 -6.26022,1.03827 -9.08283,0.49673 -0.40836,-0.0858 -0.85384,-0.16558 -1.23249,-0.28011 -2.78054,-0.73202 -5.36556,-2.06409 -7.76991,-3.7908 -0.23512,-0.1967 -0.68431,-0.48801 -0.92313,-0.68595 -3.59725,-2.7127 -6.48545,-6.03665 -9.34023,-9.64818 6.39264,-7.38615 13.5166,-15.0412 23.29487,-15.22794 2.07025,-0.0411 4.26052,0.43821 5.76402,1.87237 1.83141,1.74538 2.15562,5.0158 0.39103,6.83215 -1.0543,1.08682 -2.59245,1.51508 -4.05263,1.90225 -3.88186,1.02333 -8.44926,1.14284 -11.76066,3.68125 -3.68635,2.82971 -2.68278,8.43188 0.50859,11.30642 2.76692,2.49234 6.78985,3.19697 10.46134,2.62804 5.42867,-0.84406 10.38339,-4.34977 13.0043,-9.20623 0.19428,-0.35979 0.37742,-0.72704 0.54447,-1.10301 2.09747,-4.65229 2.13707,-10.21711 0.052,-14.8806 -2.25214,-5.04071 -6.93092,-8.91243 -12.28038,-10.15984 -1.56908,-0.36477 -3.17652,-0.51042 -4.78148,-0.46685 1.76335,-2.39026 4.03901,-4.23275 6.676,-5.480167 z m 29.41403,14.355247 0.11756,-0.21164 c 2.15315,-3.81196 10.70883,-8.8813 10.76204,-14.143607 2.637,1.247417 4.91265,3.089907 6.67725,5.480167 -1.60744,-0.0436 -3.21364,0.10208 -4.78148,0.46685 -5.35071,1.24741 -10.02948,5.11913 -12.28163,10.15984 -2.08385,4.66349 -2.04549,10.22831 0.052,14.8806 0.16706,0.37597 0.34896,0.74322 0.54448,1.10301 2.62214,4.85646 7.57687,8.36217 13.00429,9.20623 3.6715,0.56893 7.69443,-0.1357 10.46135,-2.62804 3.19137,-2.87454 4.19493,-8.47671 0.50735,-11.30642 -3.31016,-2.53841 -7.87756,-2.65792 -11.76066,-3.68125 -1.45895,-0.38717 -2.99709,-0.81543 -4.05139,-1.90225 -1.76583,-1.81635 -1.44039,-5.08677 0.39103,-6.83215 1.50349,-1.43416 3.69501,-1.91346 5.76401,-1.87237 9.77828,0.18674 16.90224,7.84179 23.29487,15.22794 -2.85354,3.61153 -5.74421,6.93548 -9.34022,9.64818 -0.23883,0.19794 -0.68925,0.48925 -0.92437,0.68595 -2.40435,1.72671 -4.98813,3.05878 -7.76867,3.7908 -0.37866,0.11453 -0.82414,0.19421 -1.23249,0.28011 -2.82261,0.54154 -5.84074,0.45689 -9.0816,-0.49673 -11.55153,-3.39865 -15.96178,-17.61819 -10.35369,-27.85522 z m 41.218,10.67026 c -0.16086,0.21413 -0.32049,0.42203 -0.48136,0.63118 -1.3649,-1.48271 -2.73599,-2.98036 -4.13801,-4.46804 -6.34437,-6.73879 -16.11647,-13.89213 -25.80441,-10.5383 -7.04105,2.43632 -8.32552,12.86257 -0.97016,15.72466 4.22835,1.64579 10.95633,0.56146 13.86185,4.61494 2.23358,3.1173 -1.6953,5.89597 -3.87815,6.68401 -1.38346,0.49548 -2.87953,0.43448 -4.31373,0.37472 -3.41782,-0.1469 -6.59557,-2.12508 -9.02096,-4.38961 -4.4746,-4.1817 -5.33462,-10.60303 -2.98967,-16.09191 2.64195,-6.18231 8.72274,-9.1029 15.14879,-8.74312 9.68299,0.53532 16.64609,8.55638 22.58581,16.20147 z m 55.57359,0.2938 c -1.29066,-0.53781 -2.59245,-0.81667 -3.85216,-0.85153 2.36227,-0.99345 5.19107,-0.83659 7.51251,0.16309 7.62513,3.28287 5.71204,13.12277 1.16444,17.94686 -0.41207,0.43821 -0.84889,0.84157 -1.29684,1.22625 1.47627,-1.92341 2.41301,-4.29251 2.52809,-7.18323 0.17943,-4.50538 -1.61115,-9.45895 -6.05604,-11.30144 z m -218.93468,19.94995 c 5.25666,5.15524 13.00306,6.95416 20.3411,6.84958 16.26,-0.2328 31.71691,-8.88379 42.4208,-21.19985 5.44227,5.4727 10.298,11.53549 14.45828,18.04894 1.16691,1.8288 2.33382,3.75221 4.12688,4.96477 1.79429,1.21131 4.42633,1.48146 6.00036,-0.008 1.57403,-1.49017 0.9219,-4.81911 -1.22631,-5.04195 7.70061,1.04076 15.64871,0.16558 22.94344,-2.52969 2.38084,-0.88016 3.96477,-3.03139 2.22121,-5.46523 -0.7734,-1.07935 -1.92793,-1.80389 -3.05277,-2.50479 0.5024,0.31372 3.29407,-1.84996 3.69996,-2.17613 0.30688,-0.24525 0.63604,-0.52287 0.94293,-0.82414 0.30936,0.30127 0.63604,0.57889 0.94417,0.82414 0.40588,0.32617 3.19631,2.48985 3.69995,2.17613 -1.12607,0.7009 -2.2806,1.42544 -3.05401,2.50479 -1.74232,2.43384 -0.16086,4.58507 2.22245,5.46523 7.29349,2.69527 15.24159,3.57045 22.9422,2.52969 -2.1482,0.22284 -2.80033,3.55178 -1.2263,5.04195 1.57279,1.48894 4.20607,1.21879 6.00036,0.008 1.79305,-1.21256 2.95996,-3.13597 4.12811,-4.96477 4.15905,-6.51345 9.01477,-12.57624 14.45705,-18.04894 10.70389,12.31606 26.16079,20.96705 42.41956,21.19985 7.34051,0.10458 15.08444,-1.69434 20.3411,-6.84958 5.25789,-5.15151 7.06332,-14.22329 2.58501,-20.07693 -4.25061,-5.54864 -13.49803,-6.16363 -18.43666,-1.22252 -2.92532,2.9318 -4.19618,7.69863 -2.36352,11.42096 1.83389,3.72233 7.09055,5.52125 10.4465,3.10484 1.44533,-1.04324 2.09004,-3.75718 0.39845,-4.30869 -1.21764,-0.39588 -2.31525,0.80298 -3.50939,1.26236 -2.21255,0.85277 -4.82108,-1.37689 -4.67506,-3.75719 0.14602,-2.37781 2.54913,-4.23275 4.9176,-4.15805 2.36723,0.0735 4.49316,1.76281 5.5388,3.90782 1.99228,4.07464 0.24872,9.29089 -3.18766,12.23763 -3.43761,2.94425 -8.15722,3.9489 -12.67389,3.91654 -7.51005,-0.0548 -14.86912,-2.71519 -21.17018,-6.82967 -6.29983,-4.11448 -11.59732,-9.63822 -16.13998,-15.66117 3.57003,-4.80916 7.31453,-9.77641 12.58975,-12.58248 5.27522,-2.80606 12.54892,-2.77742 16.51616,1.70929 3.4537,3.90658 3.15548,10.57938 -0.63233,14.15606 -3.1394,2.96168 -8.57549,3.43101 -11.71488,0.46933 -3.13816,-2.96417 -2.57265,-9.13278 1.34881,-10.918 -1.34015,2.57949 -0.0434,6.18355 2.62833,7.30647 2.67164,1.1167 6.12782,-0.49299 7.00641,-3.26793 1.23249,-3.89537 -2.71248,-7.96255 -6.77377,-8.1107 -5.37422,-0.19296 -10.1062,5.20006 -9.63721,10.59184 0.46899,5.39053 5.63532,9.78885 11.01325,9.78885 5.37793,0.005 10.37596,-4.0485 11.96113,-9.21992 2.08014,-6.79107 -1.97249,-14.87687 -8.63983,-17.22729 -5.27151,-1.85992 -11.2595,-0.31372 -15.9457,2.74756 -4.68496,3.06126 -8.30819,7.47951 -11.81387,11.85542 -5.22325,-7.23551 -12.68132,-12.45423 -19.99585,-17.53104 -4.19122,-2.91064 -8.38615,-5.82377 -12.57861,-8.733163 -0.7635,-0.530339 -1.56908,-1.078107 -2.49097,-1.182681 -0.9219,-0.102083 -1.98486,0.405846 -2.17048,1.320867 -0.17572,0.850285 0.43063,1.640813 0.74247,2.454995 0.63604,1.660732 0.007,3.579162 -1.05802,4.997132 -1.06544,1.42046 -2.52438,2.47741 -3.8336,3.67378 -4.9572,4.52032 -7.65606,10.87443 -9.54935,17.20114 -0.47023,1.56986 -0.82042,3.17955 -1.30303,4.74566 -0.0705,0.2216 -0.16705,0.45067 -0.27347,0.67351 -0.10395,-0.22284 -0.20047,-0.45191 -0.271,-0.67351 -0.48384,-1.56611 -0.83528,-3.1758 -1.30427,-4.74566 -1.89576,-6.32671 -4.59215,-12.68082 -9.54935,-17.20114 -1.31045,-1.19637 -2.7694,-2.25332 -3.83607,-3.67378 -1.06544,-1.41797 -1.69282,-3.3364 -1.05678,-4.997132 0.31184,-0.814182 0.91818,-1.60471 0.74247,-2.454995 -0.18562,-0.915021 -1.24735,-1.42295 -2.17048,-1.320867 -0.92189,0.104574 -1.72747,0.652342 -2.49097,1.182681 -4.1937,2.909393 -8.38739,5.822523 -12.57985,8.733163 -7.31329,5.07681 -14.7726,10.29553 -19.99461,17.53104 -3.50568,-4.37591 -7.12891,-8.79416 -11.81387,-11.85542 -4.68497,-3.06128 -10.67419,-4.60748 -15.94694,-2.74756 -6.6661,2.35042 -10.71873,10.43622 -8.63859,17.22729 1.58517,5.17142 6.58444,9.2249 11.96113,9.21992 5.37793,0 10.54425,-4.39832 11.01324,-9.78885 0.469,-5.39178 -4.26299,-10.7848 -9.6372,-10.59184 -4.06129,0.14815 -8.00626,4.21533 -6.77377,8.1107 0.87858,2.77494 4.33476,4.38463 7.0064,3.26793 2.67164,-1.12292 3.96849,-4.72698 2.62833,-7.30647 3.9227,1.78522 4.48821,7.95383 1.34882,10.918 -3.1394,2.96168 -8.57549,2.49235 -11.71488,-0.46933 -3.78781,-3.57668 -4.08604,-10.24948 -0.63233,-14.15606 3.96724,-4.48671 11.24093,-4.51535 16.51615,-1.70929 5.27523,2.80607 9.01973,7.77332 12.58975,12.58248 -4.54265,6.02295 -9.83891,11.54669 -16.13997,15.66117 -6.30106,4.11448 -13.66014,6.77489 -21.17142,6.82967 -4.51543,0.0324 -9.23504,-0.97229 -12.67266,-3.91654 -3.43638,-2.94674 -5.18117,-8.16299 -3.18765,-12.23763 1.04564,-2.14501 3.17157,-3.83437 5.54003,-3.90782 2.36723,-0.0747 4.77035,1.78024 4.91636,4.15805 0.14602,2.3803 -2.46374,4.60996 -4.67506,3.75719 -1.19413,-0.45938 -2.29174,-1.65824 -3.50939,-1.26236 -1.69158,0.55151 -1.04687,3.26545 0.3997,4.30869 3.35595,2.41641 8.6126,0.61749 10.44526,-3.10484 1.83265,-3.72233 0.56303,-8.48916 -2.36352,-11.42096 -4.9374,-4.94111 -14.18729,-4.32612 -18.43667,1.22252 -4.47831,5.85364 -2.67288,14.92542 2.58378,20.07693"
         style="fill:#ffffff;fill-opacity:1;fill-rule:nonzero;stroke:none"
         id="deco1"
         inkscape:connector-curvature="0" />
      <path
         inkscape:connector-curvature="0"
         id="deco2"
         style="fill:#ffffff;fill-opacity:1;fill-rule:nonzero;stroke:none"
         d="m 195.13441,238.45975 c 2.32268,0.99968 5.15024,1.15654 7.51252,0.16309 -1.25972,-0.0349 -2.56027,-0.31372 -3.85216,-0.85153 -4.44613,-1.84249 -6.23424,-6.79606 -6.05605,-11.30144 0.11632,-2.89072 1.05183,-5.25982 2.5281,-7.18323 -0.44919,0.38468 -0.88601,0.78804 -1.29684,1.22625 -4.54884,4.82409 -6.46069,14.66399 1.16443,17.94686 z m 81.81976,15.80683 c 6.42728,0.35979 12.50684,-2.56081 15.14878,-8.74312 2.34372,-5.48888 1.48493,-11.91021 -2.9909,-16.09191 -2.42415,-2.26453 -5.60191,-4.24271 -9.01972,-4.38961 -1.4342,-0.0598 -2.93027,-0.12076 -4.31373,0.37472 -2.18285,0.78804 -6.11173,3.56671 -3.87815,6.68401 2.90552,4.05348 9.6335,2.96915 13.86184,4.61494 7.35537,2.86209 6.06966,13.28834 -0.96892,15.72467 -9.68918,3.35383 -19.46003,-3.79952 -25.80564,-10.53831 -1.40202,-1.48768 -2.77435,-2.98533 -4.13925,-4.46804 -0.15963,0.20915 -0.31926,0.41705 -0.48013,0.63118 5.93973,7.64509 12.90282,15.66615 22.58582,16.20147 z m 7.75258,8.82404 c 0.0533,-5.2623 8.6089,-10.33164 10.76205,-14.14361 l 0.11755,-0.21164 c 5.6081,-10.23703 1.19909,-24.45657 -10.35245,-27.85522 -3.2421,-0.95362 -6.26022,-1.03827 -9.08283,-0.49673 -0.40836,0.0858 -0.85384,0.16558 -1.23249,0.28011 -2.78054,0.73202 -5.36556,2.06409 -7.76991,3.7908 -0.23512,0.1967 -0.68431,0.48801 -0.92313,0.68595 -3.59725,2.7127 -6.48545,6.03665 -9.34023,9.64818 6.39264,7.38615 13.5166,15.0412 23.29487,15.22794 2.07025,0.0411 4.26052,-0.43821 5.76402,-1.87237 1.83141,-1.74538 2.15562,-5.0158 0.39103,-6.83215 -1.0543,-1.08682 -2.59245,-1.51508 -4.05263,-1.90225 -3.88186,-1.02333 -8.44926,-1.14284 -11.76066,-3.68125 -3.68635,-2.82971 -2.68278,-8.43188 0.50859,-11.30642 2.76692,-2.49234 6.78985,-3.19697 10.46134,-2.62804 5.42867,0.84406 10.38339,4.34977 13.0043,9.20623 0.19428,0.35979 0.37742,0.72704 0.54447,1.10301 2.09747,4.65229 2.13707,10.21711 0.052,14.8806 -2.25214,5.04071 -6.93092,8.91243 -12.28038,10.15985 -1.56908,0.36476 -3.17652,0.51042 -4.78148,0.46685 1.76335,2.39025 4.03901,4.23274 6.676,5.48016 z m 29.41403,-14.35525 0.11756,0.21164 c 2.15315,3.81197 10.70883,8.88131 10.76204,14.14361 2.637,-1.24742 4.91265,-3.08991 6.67725,-5.48016 -1.60744,0.0436 -3.21364,-0.10209 -4.78148,-0.46685 -5.35071,-1.24742 -10.02948,-5.11914 -12.28163,-10.15985 -2.08385,-4.66349 -2.04549,-10.22831 0.052,-14.8806 0.16706,-0.37597 0.34896,-0.74322 0.54448,-1.10301 2.62214,-4.85646 7.57687,-8.36217 13.00429,-9.20623 3.6715,-0.56893 7.69443,0.1357 10.46135,2.62804 3.19137,2.87454 4.19493,8.47671 0.50735,11.30642 -3.31016,2.53841 -7.87756,2.65792 -11.76066,3.68125 -1.45895,0.38717 -2.99709,0.81543 -4.05139,1.90225 -1.76583,1.81635 -1.44039,5.08677 0.39103,6.83215 1.50349,1.43416 3.69501,1.91346 5.76401,1.87237 9.77828,-0.18674 16.90224,-7.84179 23.29487,-15.22794 -2.85354,-3.61153 -5.74421,-6.93548 -9.34022,-9.64818 -0.23883,-0.19794 -0.68925,-0.48925 -0.92437,-0.68595 -2.40435,-1.72671 -4.98813,-3.05878 -7.76867,-3.7908 -0.37866,-0.11453 -0.82414,-0.19421 -1.23249,-0.28011 -2.82261,-0.54154 -5.84074,-0.45689 -9.0816,0.49673 -11.55153,3.39865 -15.96178,17.61819 -10.35369,27.85522 z m 41.218,-10.67026 c -0.16086,-0.21413 -0.32049,-0.42203 -0.48136,-0.63118 -1.3649,1.48271 -2.73599,2.98036 -4.13801,4.46804 -6.34437,6.73879 -16.11647,13.89214 -25.80441,10.53831 -7.04105,-2.43633 -8.32552,-12.86258 -0.97016,-15.72467 4.22835,-1.64579 10.95633,-0.56146 13.86185,-4.61494 2.23358,-3.1173 -1.6953,-5.89597 -3.87815,-6.68401 -1.38346,-0.49548 -2.87953,-0.43448 -4.31373,-0.37472 -3.41782,0.1469 -6.59557,2.12508 -9.02096,4.38961 -4.4746,4.1817 -5.33462,10.60303 -2.98967,16.09191 2.64195,6.18231 8.72274,9.10291 15.14879,8.74312 9.68299,-0.53532 16.64609,-8.55638 22.58581,-16.20147 z m 55.57359,-0.2938 c -1.29066,0.53781 -2.59245,0.81667 -3.85216,0.85153 2.36227,0.99345 5.19107,0.83659 7.51251,-0.16309 7.62513,-3.28287 5.71204,-13.12277 1.16444,-17.94686 -0.41207,-0.43821 -0.84889,-0.84157 -1.29684,-1.22625 1.47627,1.92341 2.41301,4.29251 2.52809,7.18323 0.17943,4.50538 -1.61115,9.45895 -6.05604,11.30144 z M 191.97769,217.82136 c 5.25666,-5.15524 13.00306,-6.95416 20.3411,-6.84958 16.26,0.2328 31.71691,8.88379 42.4208,21.19985 5.44227,-5.4727 10.298,-11.53549 14.45828,-18.04894 1.16691,-1.8288 2.33382,-3.75221 4.12688,-4.96477 1.79429,-1.21131 4.42633,-1.48146 6.00036,0.008 1.57403,1.49017 0.9219,4.81911 -1.22631,5.04195 7.70061,-1.04076 15.64871,-0.16558 22.94344,2.52969 2.38084,0.88016 3.96477,3.03139 2.22121,5.46523 -0.7734,1.07935 -1.92793,1.80389 -3.05277,2.50479 0.5024,-0.31372 3.29407,1.84996 3.69996,2.17613 0.30688,0.24525 0.63604,0.52287 0.94293,0.82414 0.30936,-0.30127 0.63604,-0.57889 0.94417,-0.82414 0.40588,-0.32617 3.19631,-2.48985 3.69995,-2.17613 -1.12607,-0.7009 -2.2806,-1.42544 -3.05401,-2.50479 -1.74232,-2.43384 -0.16086,-4.58507 2.22245,-5.46523 7.29349,-2.69527 15.24159,-3.57045 22.9422,-2.52969 -2.1482,-0.22284 -2.80033,-3.55178 -1.2263,-5.04195 1.57279,-1.48894 4.20607,-1.21879 6.00036,-0.008 1.79305,1.21256 2.95996,3.13597 4.12811,4.96477 4.15905,6.51345 9.01477,12.57624 14.45705,18.04894 10.70389,-12.31606 26.16079,-20.96705 42.41956,-21.19985 7.34051,-0.10458 15.08444,1.69434 20.3411,6.84958 5.25789,5.15151 7.06332,14.22329 2.58501,20.07693 -4.25061,5.54864 -13.49803,6.16363 -18.43666,1.22252 -2.92532,-2.9318 -4.19618,-7.69863 -2.36352,-11.42096 1.83389,-3.72233 7.09055,-5.52125 10.4465,-3.10484 1.44533,1.04324 2.09004,3.75718 0.39845,4.30869 -1.21764,0.39588 -2.31525,-0.80298 -3.50939,-1.26236 -2.21255,-0.85277 -4.82108,1.37689 -4.67506,3.75719 0.14602,2.37781 2.54913,4.23275 4.9176,4.15805 2.36723,-0.0735 4.49316,-1.76281 5.5388,-3.90782 1.99228,-4.07464 0.24872,-9.29089 -3.18766,-12.23763 -3.43761,-2.94425 -8.15722,-3.9489 -12.67389,-3.91654 -7.51005,0.0548 -14.86912,2.71519 -21.17018,6.82967 -6.29983,4.11448 -11.59732,9.63822 -16.13998,15.66117 3.57003,4.80916 7.31453,9.77641 12.58975,12.58248 5.27522,2.80606 12.54892,2.77743 16.51616,-1.70929 3.4537,-3.90658 3.15548,-10.57938 -0.63233,-14.15606 -3.1394,-2.96168 -8.57549,-3.43101 -11.71488,-0.46933 -3.13816,2.96417 -2.57265,9.13278 1.34881,10.918 -1.34015,-2.57949 -0.0434,-6.18355 2.62833,-7.30647 2.67164,-1.1167 6.12782,0.49299 7.00641,3.26793 1.23249,3.89537 -2.71248,7.96255 -6.77377,8.1107 -5.37422,0.19296 -10.1062,-5.20006 -9.63721,-10.59184 0.46899,-5.39053 5.63532,-9.78885 11.01325,-9.78885 5.37793,-0.005 10.37596,4.0485 11.96113,9.21992 2.08014,6.79107 -1.97249,14.87687 -8.63983,17.22729 -5.27151,1.85992 -11.2595,0.31372 -15.9457,-2.74755 -4.68496,-3.06127 -8.30819,-7.47952 -11.81387,-11.85543 -5.22325,7.23551 -12.68132,12.45424 -19.99585,17.53105 -4.19122,2.91064 -8.38615,5.82376 -12.57861,8.73316 -0.7635,0.53034 -1.56908,1.0781 -2.49097,1.18268 -0.9219,0.10208 -1.98486,-0.40585 -2.17048,-1.32087 -0.17572,-0.85028 0.43063,-1.64081 0.74247,-2.45499 0.63604,-1.66074 0.007,-3.57917 -1.05802,-4.99714 -1.06544,-1.42046 -2.52438,-2.4774 -3.8336,-3.67378 -4.9572,-4.52032 -7.65606,-10.87443 -9.54935,-17.20114 -0.47023,-1.56986 -0.82042,-3.17955 -1.30303,-4.74566 -0.0705,-0.2216 -0.16705,-0.45067 -0.27347,-0.67351 -0.10395,0.22284 -0.20047,0.45191 -0.271,0.67351 -0.48384,1.56611 -0.83528,3.1758 -1.30427,4.74566 -1.89576,6.32671 -4.59215,12.68082 -9.54935,17.20114 -1.31045,1.19638 -2.7694,2.25332 -3.83607,3.67378 -1.06544,1.41797 -1.69282,3.3364 -1.05678,4.99714 0.31184,0.81418 0.91818,1.60471 0.74247,2.45499 -0.18562,0.91502 -1.24735,1.42295 -2.17048,1.32087 -0.92189,-0.10458 -1.72747,-0.65234 -2.49097,-1.18268 -4.1937,-2.9094 -8.38739,-5.82252 -12.57985,-8.73316 -7.31329,-5.07681 -14.7726,-10.29554 -19.99461,-17.53105 -3.50568,4.37591 -7.12891,8.79416 -11.81387,11.85543 -4.68497,3.06127 -10.67419,4.60747 -15.94694,2.74755 -6.6661,-2.35042 -10.71873,-10.43622 -8.63859,-17.22729 1.58517,-5.17142 6.58444,-9.2249 11.96113,-9.21992 5.37793,0 10.54425,4.39832 11.01324,9.78885 0.469,5.39178 -4.26299,10.7848 -9.6372,10.59184 -4.06129,-0.14815 -8.00626,-4.21533 -6.77377,-8.1107 0.87858,-2.77494 4.33476,-4.38463 7.0064,-3.26793 2.67164,1.12292 3.96849,4.72698 2.62833,7.30647 3.9227,-1.78522 4.48821,-7.95383 1.34882,-10.918 -3.1394,-2.96168 -8.57549,-2.49235 -11.71488,0.46933 -3.78781,3.57668 -4.08604,10.24948 -0.63233,14.15606 3.96724,4.48672 11.24093,4.51535 16.51615,1.70929 5.27523,-2.80607 9.01973,-7.77332 12.58975,-12.58248 -4.54265,-6.02295 -9.83891,-11.54669 -16.13997,-15.66117 -6.30106,-4.11448 -13.66014,-6.77489 -21.17142,-6.82967 -4.51543,-0.0324 -9.23504,0.97229 -12.67266,3.91654 -3.43638,2.94674 -5.18117,8.16299 -3.18765,12.23763 1.04564,2.14501 3.17157,3.83437 5.54003,3.90782 2.36723,0.0747 4.77035,-1.78024 4.91636,-4.15805 0.14602,-2.3803 -2.46374,-4.60996 -4.67506,-3.75719 -1.19413,0.45938 -2.29174,1.65824 -3.50939,1.26236 -1.69158,-0.55151 -1.04687,-3.26545 0.3997,-4.30869 3.35595,-2.41641 8.6126,-0.61749 10.44526,3.10484 1.83265,3.72233 0.56303,8.48916 -2.36352,11.42096 -4.9374,4.94111 -14.18729,4.32612 -18.43667,-1.22252 -4.47831,-5.85364 -2.67288,-14.92542 2.58378,-20.07693" />
      <text
         sodipodi:linespacing="125%"
         id="ingeniare"
         style="font-style:normal;font-weight:normal;font-size:40px;line-height:125%;font-family:sans-serif;letter-spacing:0px;word-spacing:0px;fill:#ffffff;fill-opacity:1;stroke:none;stroke-width:1px;stroke-linecap:butt;stroke-linejoin:miter;stroke-opacity:1;"
         xml:space="preserve"
         x="0.27260196"
         y="3.9268365e-05"><textPath
           id="textPath4432"
           xlink:href="#path4426"><tspan
   id="tspan4430"
   style="font-style:normal;font-variant:normal;font-weight:bold;font-stretch:normal;font-size:27.5px;font-family:Merriweather;-inkscape-font-specification:'Merriweather Bold';fill:#ffffff;">INGENIARE</tspan></textPath></text>
      <text
         x="2.2158117"
         sodipodi:linespacing="125%"
         id="est"
         style="font-style:normal;font-weight:normal;font-size:40px;line-height:125%;font-family:sans-serif;letter-spacing:0px;word-spacing:0px;fill:#ffffff;fill-opacity:1;stroke:none;stroke-width:1px;stroke-linecap:butt;stroke-linejoin:miter;stroke-opacity:1"
         xml:space="preserve"
         y="6.9786797e-06"><textPath
           id="textPath4445"
           xlink:href="#path4439"><tspan
   id="tspan4443"
   style="font-style:normal;font-variant:normal;font-weight:bold;font-stretch:normal;font-size:27.5px;font-family:Merriweather;-inkscape-font-specification:'Merriweather Bold';fill:#ffffff"
   dx="0 0 3">EST. 2002</tspan></textPath></text>
      <text
         sodipodi:linespacing="125%"
         id="ingenium"
         y="193.73633"
         x="225.90111"
         style="font-style:normal;font-weight:normal;font-size:40px;line-height:125%;font-family:sans-serif;letter-spacing:0px;word-spacing:0px;fill:#ffffff;fill-opacity:1;stroke:none;stroke-width:1px;stroke-linecap:butt;stroke-linejoin:miter;stroke-opacity:1;"
         xml:space="preserve"><tspan
           style="font-style:normal;font-variant:normal;font-weight:normal;font-stretch:normal;font-family:Bebas;-inkscape-font-specification:Bebas;fill:#ffffff;"
           y="193.73633"
           x="225.90111"
           id="tspan4482"
           sodipodi:role="line">INGENIUM</tspan></text>
    </g>
  </g>
</svg>
