<?xml version="1.0" encoding="UTF-8" standalone="no"?>
<svg
   xmlns:sketch="http://www.bohemiancoding.com/sketch/ns"
   xmlns:dc="http://purl.org/dc/elements/1.1/"
   xmlns:cc="http://creativecommons.org/ns#"
   xmlns:rdf="http://www.w3.org/1999/02/22-rdf-syntax-ns#"
   xmlns:svg="http://www.w3.org/2000/svg"
   xmlns="http://www.w3.org/2000/svg"
   xmlns:sodipodi="http://sodipodi.sourceforge.net/DTD/sodipodi-0.dtd"
   xmlns:inkscape="http://www.inkscape.org/namespaces/inkscape"
   width="60px"
   height="60px"
   viewBox="0 0 60 60"
   version="1.1"
   id="svg4199"
   inkscape:version="0.91 r13725"
   sodipodi:docname="myheart.svg">
  <metadata
     id="metadata4214">
    <rdf:RDF>
      <cc:Work
         rdf:about="">
        <dc:format>image/svg+xml</dc:format>
        <dc:type
           rdf:resource="http://purl.org/dc/dcmitype/StillImage" />
        <dc:title>Realheart</dc:title>
      </cc:Work>
    </rdf:RDF>
  </metadata>
  <sodipodi:namedview
     pagecolor="#ffffff"
     bordercolor="#666666"
     borderopacity="1"
     objecttolerance="10"
     gridtolerance="10"
     guidetolerance="10"
     inkscape:pageopacity="0"
     inkscape:pageshadow="2"
     inkscape:window-width="3070"
     inkscape:window-height="1752"
     id="namedview4212"
     showgrid="false"
     inkscape:zoom="15.733333"
     inkscape:cx="11.731077"
     inkscape:cy="17.899749"
     inkscape:window-x="130"
     inkscape:window-y="48"
     inkscape:window-maximized="1"
     inkscape:current-layer="svg4199" />
  <!-- Generator: Sketch 3.3.3 (12081) - http://www.bohemiancoding.com/sketch -->
  <title
     id="title4201">Realheart</title>
  <desc
     id="desc4203">Created with Sketch.</desc>
  <defs
     id="defs4205" />
  <rect
     style="fill:#ff0000;fill-opacity:1;stroke:none;stroke-width:3;stroke-miterlimit:4;stroke-dasharray:none;stroke-opacity:1"
     id="blood"
     width="48"
     height="54"
     x="9.0169487"
     y="2.7000511">
    <title
       id="title4170">blood</title>
  </rect>
  <rect
     style="fill:#ffffff;fill-opacity:1;stroke:none;stroke-width:3;stroke-miterlimit:4;stroke-dasharray:none;stroke-opacity:1"
     id="whiteblood"
     width="48"
     height="53"
     x="6.1906786"
     y="2.8559306">
    <title
       id="title4170-6">whiteblood</title>
  </rect>
  <g
     id="g4762"
     transform="matrix(0.95055386,0,0,0.96530917,1.9062999,2.2064584)">
    <g
       sketch:type="MSPage"
       id="outlined"
       style="fill:none;fill-rule:evenodd;stroke:none;stroke-width:1">
      <g
         transform="translate(-360,-1560)"
         sketch:type="MSLayerGroup"
         id="Medical_sliced" />
      <g
         transform="translate(-359,-1557)"
         sketch:type="MSLayerGroup"
         id="Imported-Layers"
         style="fill:#535353">
        <path
           sketch:type="MSShapeGroup"
           id="Fill-608"
           d="m 390.697,1613.587 c -10e-4,0 0,0 -10e-4,0 -4.244,0 -9.307,-3.749 -15.477,-11.462 -12.561,-15.701 -4.002,-28.52 -1.542,-31.609 -0.827,-1.024 -2.177,-3.068 -2.177,-5.516 0,-4.193 4.37,-5.869 6.665,-5.486 2.979,0.496 4.579,4.798 5.114,6.559 l 3.342,0.334 c 0.198,-1.079 0.721,-2.81 2.098,-4.532 0.993,-1.241 2.39,-1.897 4.038,-1.897 1.594,0 3.405,0.643 4.843,1.722 2.085,1.564 1.409,5.089 1.022,6.531 0.27,0.212 0.73,0.465 1.397,0.465 0.322,0 0.67,-0.058 1.035,-0.173 0.256,-0.131 1.117,-1.063 1.631,-1.62 0.625,-0.675 1.214,-1.314 1.701,-1.692 1.609,-1.252 3.796,-1.042 4.943,0.367 0.605,0.741 0.841,1.698 0.65,2.624 -0.228,1.105 -0.954,2.127 -1.655,3.116 -0.874,1.232 -1.7,2.394 -1.375,3.366 1.629,4.886 -3.027,25.736 -7.117,31.871 -1.979,2.968 -4.688,7.032 -9.135,7.032 l 0,0 z m -13.263,-52.131 c -1.233,0 -3.934,0.893 -3.934,3.544 0,2.598 2.176,4.763 2.198,4.784 0.391,0.384 0.402,1.013 0.023,1.408 -0.504,0.528 -12.203,13.105 1.06,29.683 5.686,7.108 10.368,10.712 13.916,10.712 3.128,0 5.151,-2.662 7.471,-6.142 3.997,-5.996 8.198,-26.183 6.883,-30.129 -0.645,-1.934 0.57,-3.645 1.642,-5.155 0.582,-0.821 1.184,-1.67 1.327,-2.363 0.095,-0.458 -0.11,-0.796 -0.241,-0.957 -0.487,-0.597 -1.393,-0.652 -2.165,-0.052 -0.357,0.278 -0.918,0.885 -1.46,1.472 -1.153,1.247 -1.837,1.963 -2.501,2.171 -0.558,0.175 -1.108,0.264 -1.634,0.264 -1.781,0 -2.945,-1.032 -3.351,-1.641 -0.171,-0.256 -0.214,-0.578 -0.117,-0.87 0.412,-1.248 0.919,-4.082 -0.151,-4.885 -1.088,-0.816 -2.484,-1.322 -3.643,-1.322 -1.034,0 -1.867,0.385 -2.476,1.147 -1.733,2.165 -1.781,4.354 -1.781,4.375 0,0.282 -0.12,0.552 -0.329,0.741 -0.21,0.19 -0.491,0.278 -0.771,0.254 l -5,-0.5 c -0.419,-0.042 -0.767,-0.343 -0.87,-0.752 -0.35,-1.391 -1.781,-5.437 -3.695,-5.757 -0.123,-0.02 -0.258,-0.03 -0.401,-0.03 l 0,0 z"
           inkscape:connector-curvature="0" />
        <path
           sketch:type="MSShapeGroup"
           id="Fill-609"
           d="m 370.102,1593.093 -0.194,-1.99 0.995,-0.098 c 0.199,-0.02 19.964,-2.066 24.178,-11.899 0.138,-0.323 0.436,-0.549 0.785,-0.597 0.349,-0.043 0.696,0.093 0.915,0.366 l 0.749,0.938 c 4.44,5.561 5.087,6.251 7.227,5.717 l 0.97,-0.243 0.486,1.941 -0.97,0.242 c -3.413,0.856 -4.769,-0.765 -9.058,-6.136 -5.754,9.666 -24.266,11.581 -25.088,11.661 l -0.995,0.098"
           inkscape:connector-curvature="0" />
      </g>
    </g>
    <path
       id="rect4179"
       d="m -2.0054623,-2.2857531 0,62.1562521 63.1210943,0 0,-62.1562521 -63.1210943,0 z m 20.6953133,4.738283 c 0.158075,0.0077 0.309687,0.02294 0.453125,0.04687 2.979,0.496 4.580234,4.799547 5.115234,6.560547 l 3.341797,0.333984 c 0.198,-1.079 0.720656,-2.811203 2.097656,-4.533203 0.993,-1.241 2.38911,-1.896484 4.03711,-1.896484 1.594,0 3.405749,0.643656 4.84375,1.722656 2.085,1.564 1.408484,5.087297 1.021484,6.5292971 0.27,0.212 0.731437,0.466797 1.398437,0.466797 0.322,0 0.670157,-0.05883 1.035157,-0.173828 0.256,-0.131 1.116859,-1.062141 1.630859,-1.6191411 0.625,-0.675 1.214172,-1.315359 1.701172,-1.693359 1.609,-1.252 3.794406,-1.041813 4.941406,0.367187 0.605,0.741 0.841391,1.6990001 0.650391,2.6250001 -0.228,1.105 -0.953297,2.126235 -1.654297,3.115235 -0.874,1.232 -1.7,2.393234 -1.375,3.365234 1.629,4.886 -3.027188,25.736094 -7.117188,31.871094 -1.979,2.968 -4.687765,7.033203 -9.134765,7.033203 l -0.002,0 c -4.244,0 -9.306563,-3.749891 -15.476563,-11.462891 C 3.6366157,29.409728 12.1966,16.590353 14.6566,13.501353 c -0.826999,-1.024 -2.177734,-3.067625 -2.177734,-5.5156251 0,-3.930937 3.839813,-5.649299 6.210938,-5.533203 z"
       style="fill:#ffffff;stroke:none;stroke-width:3;stroke-miterlimit:4;stroke-dasharray:none;stroke-opacity:1"
       inkscape:connector-curvature="0" />
  </g>
</svg>
